<?xml version="1.0" encoding="UTF-8" standalone="no"?>
<!DOCTYPE svg  PUBLIC '-//W3C//DTD SVG 1.1//EN'  'http://www.w3.org/Graphics/SVG/1.1/DTD/svg11.dtd'>
<svg xmlns="http://www.w3.org/2000/svg">
<defs>
<font id="Humanist521BT-Light" horiz-adv-x="505">
<font-face underline-position="-96" font-weight="300" descent="-200" panose-1="0 0 0 0 0 0 0 0 0 0" units-per-em="1000" unicode-range="U+0020-2212" bbox="-167 -236 1257 955" x-height="451" underline-thickness="35" font-family="Humanist 521 Light" ascent="800" cap-height="683"/>
<missing-glyph horiz-adv-x="1000"/>
<glyph glyph-name=".notdef" horiz-adv-x="1000"/>
<glyph glyph-name=".null" horiz-adv-x="0"/>
<glyph glyph-name="nonmarkingreturn" horiz-adv-x="333"/>
<glyph glyph-name="space" horiz-adv-x="252" unicode=" "/>
<glyph glyph-name="exclam" horiz-adv-x="252" unicode="!" d="M110 194l-14 489h61l-15 -489h-32zM94 0v100h65v-100h-65z"/>
<glyph glyph-name="quotedbl" horiz-adv-x="269" unicode='&quot;' d="M220 700v-270h-42v270h42zM91 700v-270h-42v270h42z"/>
<glyph glyph-name="numbersign" horiz-adv-x="769" unicode="#" d="M478 423h-132l-48 -138h131zM447 710l-85 -243h132l86 243h54l-85 -243h157l-15 -44h-158l-49 -138h170l-15 -44h-171l-85 -241h-55l86 241h-132l-87 -241h-54l85 241h-163l15 44h164l49 138h-176l14 44h178l86 243h54z"/>
<glyph glyph-name="dollar" d="M272 53q71 5 110.5 38.5t39.5 85.5q0 51 -35 82t-115 55v-261zM228 388v244q-68 -5 -105.5 -36t-37.5 -80q0 -90 143 -128zM228 -111v112q-113 3 -200 82v62q106 -91 200 -92v275q-99 31 -145.5 75t-46.5 109q0 71 51.5 116.5t140.5 49.5v71h44v-71q98 0 178 -61v-57 q-100 71 -172 71h-6v-260q107 -29 155.5 -73t48.5 -115q0 -78 -55 -128t-149 -54v-112h-44z" unicode="$"/>
<glyph glyph-name="percent" horiz-adv-x="865" unicode="%" d="M506 173q0 -58 39.5 -98t97.5 -40q57 0 97 40t40 98t-40 98.5t-97 40.5t-97 -40.5t-40 -98.5zM458 173q0 77 54 131.5t131 54.5t131 -54.5t54 -131.5t-54 -131t-131 -54t-131 54t-54 131zM177 -12l458 706h53l-459 -706h-52zM86 509q0 -58 39.5 -98.5t96.5 -40.5t97 40.5 t40 98.5t-40 98.5t-97 40.5t-96.5 -40.5t-39.5 -98.5zM37 509q0 77 54 131t131 54t131 -54t54 -131t-54 -131t-131 -54t-131 54t-54 131z"/>
<glyph glyph-name="ampersand" horiz-adv-x="618" unicode="&amp;" d="M402 147l-169 179q-147 -62 -147 -164q0 -51 37 -86t91 -35q107 0 188 106zM249 386q124 58 124 140q0 43 -29 70.5t-78 27.5q-43 0 -72 -27.5t-29 -68.5q0 -67 84 -142zM542 0l-102 107q-93 -115 -232 -115q-82 0 -132 47t-50 120q0 62 43.5 116t125.5 91 q-82 79 -82 160q0 62 45 103.5t114 41.5t111.5 -40.5t42.5 -102.5q0 -109 -142 -178l151 -160q46 59 72 154h56q-25 -111 -92 -192l143 -152h-72z"/>
<glyph glyph-name="quotesingle" horiz-adv-x="139" unicode="&apos;" d="M91 700v-270h-42v270h42z"/>
<glyph glyph-name="parenleft" horiz-adv-x="279" unicode="(" d="M272 695q-187 -206 -187 -458q0 -253 187 -459h-48q-194 206 -194 459q0 252 194 458h48z"/>
<glyph glyph-name="parenright" horiz-adv-x="279" unicode=")" d="M7 -222q187 206 187 459q0 252 -187 458h48q194 -206 194 -458q0 -253 -194 -459h-48z"/>
<glyph glyph-name="asterisk" horiz-adv-x="442" unicode="*" d="M196 297l20 185l-118 -145l-35 35l145 118l-186 -19v49l186 -19l-145 118l35 35l118 -145l-20 185h50l-20 -185l118 145l35 -35l-145 -118l186 19v-49l-186 19l145 -118l-35 -35l-118 145l20 -185h-50z"/>
<glyph glyph-name="plus" horiz-adv-x="833" unicode="+" d="M436 595v-278h273v-39h-273v-278h-39v278h-273v39h273v278h39z"/>
<glyph glyph-name="comma" horiz-adv-x="252" unicode="," d="M121 0h-27v100h65v-75q0 -51 -14 -83.5t-51 -58.5v39q27 20 27 71v7z"/>
<glyph glyph-name="hyphen" horiz-adv-x="333" unicode="-" d="M47 202v47h240v-47h-240z"/>
<glyph glyph-name="period" horiz-adv-x="252" unicode="." d="M94 0v100h65v-100h-65z"/>
<glyph glyph-name="slash" horiz-adv-x="278" unicode="/" d="M44 -93h-47l290 787h47z"/>
<glyph glyph-name="zero" d="M88 341q0 -143 45.5 -223t118.5 -80t118.5 80t45.5 223t-45.5 223t-118.5 80t-118.5 -80t-45.5 -223zM35 341q0 166 60 259.5t157 93.5t157 -93.5t60 -259.5t-60 -259.5t-157 -93.5t-157 93.5t-60 259.5z" unicode="0"/>
<glyph glyph-name="one" d="M227 0v683h51v-683h-51z" unicode="1"/>
<glyph glyph-name="two" d="M41 0v9q314 313 314 488q0 67 -44 109t-115 42q-69 0 -145 -71v56q72 62 155 62q89 0 145 -56t56 -146q0 -156 -254 -442h319v-51h-431z" unicode="2"/>
<glyph glyph-name="three" d="M47 25v53q73 -39 145 -39q78 0 123 40t45 108q0 69 -46 109t-129 41v49q81 5 124.5 40t43.5 92t-43.5 94t-113.5 37q-66 0 -139 -49v51q64 43 143 43q94 0 149 -48t55 -125q0 -119 -119 -157q128 -42 128 -176q0 -90 -59.5 -144.5t-158.5 -54.5q-88 0 -148 36z" unicode="3"/>
<glyph glyph-name="four" d="M329 306v284l-238 -284h238zM329 0v259h-311v22l343 411h19v-386h97v-47h-97v-259h-51z" unicode="4"/>
<glyph glyph-name="five" d="M54 38v59q83 -58 165 -58q74 0 121 47.5t47 122.5q0 77 -47.5 122t-132.5 45q-37 0 -95 -9v316h291v-49h-240v-215q27 4 57 4q103 0 162.5 -57t59.5 -156q0 -98 -63 -160t-166 -62q-88 0 -159 50z" unicode="5"/>
<glyph glyph-name="six" d="M117 320q70 55 150 55q82 0 137 -54t55 -137q0 -87 -55 -141.5t-146 -54.5q-93 0 -148.5 66t-55.5 179q0 253 292 461l26 -33q-221 -164 -255 -341zM110 260q-2 -26 -2 -37q0 -86 42 -135t112 -49q64 0 103.5 38t39.5 98q0 70 -40 110t-110 40q-74 0 -145 -65z" unicode="6"/>
<glyph glyph-name="seven" d="M115 8l287 626h-373v49h445v-7l-313 -689z" unicode="7"/>
<glyph glyph-name="eight" d="M158 354q-89 59 -89 158q0 76 52.5 129.5t130.5 53.5t131 -53t53 -130q0 -100 -89 -157q103 -64 103 -171q0 -85 -56.5 -140.5t-141.5 -55.5t-141 56.5t-56 139.5q0 106 103 170zM118 513q0 -56 40 -95.5t95 -39.5q56 0 95 39.5t39 95.5t-39 95.5t-95 39.5t-95.5 -39.5 t-39.5 -95.5zM108 184q0 -61 42.5 -104.5t101.5 -43.5q61 0 103.5 43t42.5 105t-42.5 105.5t-102.5 43.5q-59 0 -102 -44t-43 -105z" unicode="8"/>
<glyph glyph-name="nine" d="M385 363q-70 -55 -151 -55q-82 0 -136.5 54t-54.5 137q0 87 55 141t146 54q93 0 148.5 -65.5t55.5 -178.5q0 -254 -292 -462l-27 34q222 165 256 341zM392 423q2 26 2 36q0 86 -42 135.5t-113 49.5q-63 0 -102.5 -38t-39.5 -98q0 -70 40 -110t110 -40q74 0 145 65z" unicode="9"/>
<glyph glyph-name="colon" horiz-adv-x="252" unicode=":" d="M94 352v99h65v-99h-65zM94 0v100h65v-100h-65z"/>
<glyph glyph-name="semicolon" horiz-adv-x="252" unicode=";" d="M94 352v99h65v-99h-65zM121 0h-27v100h65v-75q0 -51 -14 -83.5t-51 -58.5v39q27 20 27 71v7z"/>
<glyph glyph-name="less" horiz-adv-x="833" unicode="&lt;" d="M704 505l-510 -207l510 -207v-43l-575 235v30l575 236v-44z"/>
<glyph glyph-name="equal" horiz-adv-x="833" unicode="=" d="M709 229v-39h-585v39h585zM709 406v-39h-585v39h585z"/>
<glyph glyph-name="greater" horiz-adv-x="833" unicode="&gt;" d="M704 313v-30l-575 -235v43l510 207l-510 207v44z"/>
<glyph glyph-name="question" horiz-adv-x="318" unicode="?" d="M136 169q-43 42 -43 99q0 22 12 51t23.5 48t41.5 65q41 64 41 118q0 48 -20 73.5t-56 25.5q-40 0 -80 -49l-8 5l22 70q29 19 69 19q54 0 90 -40t36 -103q0 -65 -56 -157q-8 -14 -24 -36.5t-25 -36t-16.5 -33.5t-7.5 -40q0 -38 19 -64zM107 0v100h65v-100h-65z"/>
<glyph glyph-name="at" horiz-adv-x="1000" unicode="@" d="M636 404l30 63h39l-67 -270q-10 -37 -10 -53q0 -45 57 -45q48 0 99 37q49 36 79 100.5t30 138.5q0 133 -97 214.5t-257 81.5q-164 0 -278 -94q-151 -125 -151 -328q0 -159 107.5 -254.5t289.5 -95.5q165 0 304 94l14 -22q-143 -107 -316 -107q-184 0 -303 90 q-147 111 -147 301q0 160 97 279q142 174 388 174q163 0 270 -82q127 -98 127 -246q0 -170 -119 -264q-68 -54 -149 -54q-94 0 -94 71q0 5 2 19q-50 -90 -142 -90q-75 0 -114 40.5t-39 118.5q0 112 66 189t159 77q95 0 125 -83zM595 228l31 124q-22 99 -114 99 q-74 0 -124.5 -67.5t-50.5 -165.5q0 -57 28 -88.5t78 -31.5q54 0 95.5 35.5t56.5 94.5z"/>
<glyph glyph-name="A" horiz-adv-x="566" unicode="A" d="M152 284h262l-131 310zM-26 0l298 689h22l298 -689h-58l-101 238h-300l-101 -238h-58z"/>
<glyph glyph-name="B" horiz-adv-x="546" unicode="B" d="M135 324v-278h113q103 0 152 32t49 104q0 64 -49.5 103t-134.5 39h-130zM135 639v-269h111q67 0 107.5 37.5t40.5 98.5q0 62 -42 97.5t-115 35.5h-102zM80 0v683h161q97 0 153 -47t56 -126q0 -106 -97 -152q157 -39 157 -182q0 -91 -81 -142q-34 -22 -76 -28t-112 -6 h-161z"/>
<glyph glyph-name="C" horiz-adv-x="679" unicode="C" d="M648 51q-122 -63 -239 -63q-118 0 -211 61q-75 49 -116.5 126.5t-41.5 168.5q0 145 105 247q107 104 264 104q113 0 239 -64v-57q-135 72 -241 72q-96 0 -173 -51q-64 -43 -99 -109t-35 -144q0 -126 87 -216q86 -89 220 -89q105 0 241 72v-58z"/>
<glyph glyph-name="D" horiz-adv-x="731" unicode="D" d="M303 634h-165v-586h165q132 0 200 46q57 38 89.5 103.5t32.5 143.5t-32.5 143.5t-89.5 103.5q-68 46 -200 46zM317 683q148 0 232 -62q64 -47 100 -121t36 -158t-36 -158t-100 -121q-85 -63 -232 -63h-237v683h237z"/>
<glyph glyph-name="E" horiz-adv-x="493" unicode="E" d="M80 0v683h370v-44h-315v-271h305v-44h-305v-278h323v-46h-378z"/>
<glyph glyph-name="F" horiz-adv-x="447" unicode="F" d="M80 0v683h347v-46h-290v-252h262v-45h-262v-340h-57z"/>
<glyph glyph-name="G" horiz-adv-x="715" unicode="G" d="M648 51q-124 -63 -239 -63q-118 0 -211 61q-75 49 -116.5 126.5t-41.5 168.5q0 145 105 247q107 104 264 104q114 0 239 -64v-57q-135 72 -241 72q-96 0 -173 -51q-64 -43 -99 -109t-35 -144q0 -126 87 -216q86 -89 221 -89q86 0 186 45v184h-144v48h198v-263z"/>
<glyph glyph-name="H" horiz-adv-x="725" unicode="H" d="M80 0v683h55v-316h454v316h55v-683h-55v319h-454v-319h-55z"/>
<glyph glyph-name="I" horiz-adv-x="226" unicode="I" d="M83 0v683h55v-683h-55z"/>
<glyph glyph-name="J" horiz-adv-x="228" unicode="J" d="M87 0v683h55v-678q0 -106 -35.5 -155t-116.5 -49q-3 0 -9.5 0.5t-10.5 0.5l-10 50q5 0 14 -2.5t13 -2.5q57 0 78.5 36t21.5 117z"/>
<glyph glyph-name="K" horiz-adv-x="542" unicode="K" d="M84 0v683h55v-335l324 335h71l-324 -335l360 -348h-77l-354 343v-343h-55z"/>
<glyph glyph-name="L" horiz-adv-x="473" unicode="L" d="M83 0v683h57v-637h322v-46h-379z"/>
<glyph glyph-name="M" horiz-adv-x="784" unicode="M" d="M80 0v683h57l255 -315l254 315h58v-683h-56v603l-256 -318l-257 318v-603h-55z"/>
<glyph glyph-name="N" horiz-adv-x="772" unicode="N" d="M80 0v683h57l500 -596v596h55v-683h-51l-506 604v-604h-55z"/>
<glyph glyph-name="O" horiz-adv-x="797" unicode="O" d="M100 342q0 -126 87 -216q87 -89 212 -89t212 89t87 216q0 125 -87 214q-88 90 -212 90q-122 0 -212 -90q-87 -87 -87 -214zM40 344q0 144 105 247q106 103 254 103q149 0 254 -103t105 -249q0 -110 -61 -198q-51 -74 -129 -115t-169 -41q-151 0 -254 103 q-105 105 -105 253z"/>
<glyph glyph-name="P" horiz-adv-x="502" unicode="P" d="M135 637v-272h104q88 0 130 33.5t42 104.5q0 134 -162 134h-114zM80 683h166q225 0 225 -183q0 -83 -54.5 -132.5t-146.5 -49.5h-135v-318h-55v683z"/>
<glyph glyph-name="Q" horiz-adv-x="797" unicode="Q" d="M99 342q0 -126 87 -216q41 -42 97.5 -65.5t115.5 -23.5q124 0 211 89t87 216q0 125 -87 214q-88 90 -211 90q-122 0 -212 -90q-88 -88 -88 -214zM352 -8q-143 22 -228 119.5t-85 232.5q0 144 106 247t253 103q149 0 254 -103q106 -104 106 -249q0 -136 -87 -233.5 t-232 -116.5q124 -80 206 -80q42 0 79 25l10 -10l-60 -71q-146 4 -322 136z"/>
<glyph glyph-name="R" horiz-adv-x="560" unicode="R" d="M135 637v-262h42q121 0 159 17q75 33 75 120q0 59 -42 92t-120 33h-114zM80 683h166q110 0 167.5 -44.5t57.5 -126.5q0 -125 -130 -167q37 -21 61 -57l188 -288h-62l-109 168q-65 99 -93 127q-33 33 -135 33h-56v-328h-55v683z"/>
<glyph glyph-name="S" horiz-adv-x="458" unicode="S" d="M402 586q-83 56 -157 56q-63 0 -102 -37t-39 -91q0 -51 30.5 -78.5t104.5 -58.5q4 -2 18 -7.5t18.5 -7.5t17 -7t17.5 -8t15 -8t15.5 -9t13.5 -9.5t14 -11.5l12 -12q45 -50 45 -120q0 -81 -56.5 -134t-145.5 -53q-88 0 -176 61v66q95 -74 175 -74q67 0 106 36.5t39 99.5 q0 55 -33 83t-115 62q-90 37 -130 77.5t-40 109.5q0 79 54.5 130t143.5 51q79 0 155 -45v-61z"/>
<glyph glyph-name="T" horiz-adv-x="581" unicode="T" d="M261 0v634h-254v49h567v-49h-254v-634h-59z"/>
<glyph glyph-name="U" horiz-adv-x="713" unicode="U" d="M130 283q0 -111 62 -175t164 -64t164 64t62 175v400h57v-397q0 -139 -77 -219t-206 -80t-205.5 80t-76.5 219v397h56v-400z"/>
<glyph glyph-name="V" horiz-adv-x="544" unicode="V" d="M-22 683h60l234 -573l236 573h58l-289 -695h-9z"/>
<glyph glyph-name="W" horiz-adv-x="926" unicode="W" d="M251 115l202 568h20l208 -568l201 568h59l-256 -695h-11l-210 574l-208 -574h-11l-261 695h60z"/>
<glyph glyph-name="X" horiz-adv-x="670" unicode="X" d="M-9 0l308 353l-289 330h71l252 -290l256 290h71l-291 -329l311 -354h-71l-274 314l-273 -314h-71z"/>
<glyph glyph-name="Y" horiz-adv-x="544" unicode="Y" d="M244 0v366l-265 317h68l225 -270l225 270h68l-265 -317v-366h-56z"/>
<glyph glyph-name="Z" horiz-adv-x="625" unicode="Z" d="M9 0v23l513 615h-484v45h573v-21l-511 -614h511v-48h-602z"/>
<glyph glyph-name="bracketleft" horiz-adv-x="279" unicode="[" d="M105 -163h179v-48h-231v894h231v-48h-179v-798z"/>
<glyph glyph-name="backslash" horiz-adv-x="278" unicode="\" d="M234 -93l-290 787h46l291 -787h-47z"/>
<glyph glyph-name="bracketright" horiz-adv-x="279" unicode="]" d="M173 -163v798h-178v48h230v-894h-230v48h178z"/>
<glyph glyph-name="asciicircum" horiz-adv-x="1000" unicode="^" d="M528 712l264 -272h-61l-231 229l-232 -229h-61l263 272h58z"/>
<glyph glyph-name="underscore" horiz-adv-x="500" unicode="_" d="M500 -197v-39h-500v39h500z"/>
<glyph glyph-name="grave" horiz-adv-x="500" unicode="`" d="M266 515l-131 170h74l102 -170h-45z"/>
<glyph glyph-name="a" horiz-adv-x="412" unicode="a" d="M290 91v141q-100 -1 -155.5 -35.5t-55.5 -88.5q0 -35 23.5 -55t64.5 -20q54 0 123 58zM291 44q-70 -54 -138 -54q-56 0 -90.5 32.5t-34.5 83.5q0 74 67 117.5t195 48.5v48q0 50 -24 73.5t-77 23.5q-63 0 -138 -55v49q74 50 142 50q79 0 113 -36.5t34 -116.5v-236 q0 -29 16 -29q3 0 7 1.5t7 3t8 5.5t8 6.5t10 9t11 9.5v-46q-44 -41 -73 -41q-22 0 -31.5 12.5t-11.5 40.5z"/>
<glyph glyph-name="b" horiz-adv-x="493" unicode="b" d="M113 77q42 -36 110 -36q81 0 132.5 54t51.5 141q0 79 -43.5 129t-108.5 50q-80 0 -142 -80v-258zM65 26v657h48v-290q70 69 159 69q84 0 138 -62.5t54 -160.5q0 -111 -68.5 -179.5t-178.5 -68.5q-70 0 -152 35z"/>
<glyph glyph-name="c" horiz-adv-x="403" unicode="c" d="M385 18q-55 -27 -114 -27q-104 0 -171 66t-67 169q0 99 68.5 167t173.5 68q50 0 101 -20v-56q-51 29 -108 29q-75 0 -127.5 -55t-52.5 -134q0 -80 52.5 -134t127.5 -54q56 0 117 37v-56z"/>
<glyph glyph-name="d" horiz-adv-x="491" unicode="d" d="M377 88v277q-48 51 -121 51q-74 0 -122 -52t-48 -137t48 -137t122 -52t121 50zM377 33q-54 -41 -127 -41q-98 0 -159.5 64.5t-61.5 169.5t61.5 169.5t159.5 64.5q73 0 127 -41v264h49v-683h-49v33z"/>
<glyph glyph-name="e" horiz-adv-x="478" unicode="e" d="M431 50q-85 -60 -172 -60q-101 0 -162.5 66.5t-61.5 176.5q0 102 58 164.5t152 62.5q87 0 141 -59t54 -157v-2h-352v-5q0 -90 47.5 -144t122.5 -54q86 0 173 66v-55zM94 285h287q-8 60 -46.5 96t-93.5 36t-96.5 -36.5t-50.5 -95.5z"/>
<glyph glyph-name="f" horiz-adv-x="205" unicode="f" d="M68 0v409h-78v42h78v50q0 97 37 143.5t117 46.5q20 0 49 -6v-43q-22 5 -43 5q-60 0 -84.5 -31t-24.5 -101v-64h83v-42h-83v-409h-51z"/>
<glyph glyph-name="g" horiz-adv-x="419" unicode="g" d="M210 -22q-152 0 -152 -87q0 -36 38.5 -57t109.5 -21q157 0 157 86q0 79 -153 79zM88 290q0 -49 34.5 -82.5t83.5 -33.5t83 34t34 83t-34 83t-83 34t-83.5 -34.5t-34.5 -83.5zM150 141q-112 44 -112 150q0 87 81 137q38 23 127 23h168v-43h-96q54 -50 54 -117 q0 -118 -145 -160q-12 -3 -31 -8t-28 -7.5t-21.5 -7.5t-18 -10t-9.5 -12.5t-4 -18.5q0 -12 6 -20t24.5 -12.5t32.5 -6.5t50 -5q99 -10 141 -35t42 -86q0 -130 -207 -130q-94 0 -143.5 31t-49.5 89q0 43 31.5 73t89.5 38q-62 14 -62 63q0 53 80 75z"/>
<glyph glyph-name="h" horiz-adv-x="487" unicode="h" d="M64 0v683h49v-304q65 80 157 80q76 0 117.5 -47.5t41.5 -136.5v-275h-50v251q0 162 -114 162q-95 0 -152 -95v-318h-49z"/>
<glyph glyph-name="i" horiz-adv-x="178" unicode="i" d="M64 600v83h51v-83h-51zM64 0v451h51v-451h-51z"/>
<glyph glyph-name="j" horiz-adv-x="181" unicode="j" d="M67 600v83h50v-83h-50zM67 -52v503h50v-507q0 -83 -31 -123.5t-106 -48.5l-12 44q59 5 79 34t20 98z"/>
<glyph glyph-name="k" horiz-adv-x="412" unicode="k" d="M360 0l-241 240l211 211h67l-211 -209l242 -242h-68zM65 0v683h50v-683h-50z"/>
<glyph glyph-name="l" horiz-adv-x="178" unicode="l" d="M64 0v683h51v-683h-51z"/>
<glyph glyph-name="m" horiz-adv-x="773" unicode="m" d="M60 0v451h50v-72q62 80 150 80q50 0 83.5 -21.5t56.5 -70.5q73 92 162 92q74 0 114 -48t40 -136v-275h-51v251q0 162 -109 162q-90 0 -143 -95v-318h-50v251q0 162 -110 162q-89 0 -143 -95v-318h-50z"/>
<glyph glyph-name="n" horiz-adv-x="484" unicode="n" d="M60 0v451h50v-72q65 80 156 80q77 0 118.5 -48t41.5 -136v-275h-50v251q0 162 -115 162q-94 0 -151 -95v-318h-50z"/>
<glyph glyph-name="o" horiz-adv-x="529" unicode="o" d="M85 225q0 -79 53 -133.5t127 -54.5t126.5 54.5t52.5 133.5t-52.5 134t-126.5 55q-75 0 -127.5 -55t-52.5 -134zM30 226q0 98 68 166.5t167 68.5q98 0 166.5 -68.5t68.5 -166.5q0 -97 -70 -167q-68 -68 -165 -68q-98 0 -166.5 68t-68.5 167z"/>
<glyph glyph-name="p" horiz-adv-x="491" unicode="p" d="M113 363v-276q48 -51 121 -51q75 0 123 52t48 137t-48 137t-123 52q-73 0 -121 -51zM65 -227v678h48v-32q54 41 127 41q98 0 159.5 -64.5t61.5 -169.5t-61.5 -169.5t-159.5 -64.5q-74 0 -127 40v-259h-48z"/>
<glyph glyph-name="q" horiz-adv-x="491" unicode="q" d="M377 87v276q-48 51 -121 51q-74 0 -122 -52t-48 -137t48 -137t122 -52q73 0 121 51zM377 32q-53 -40 -127 -40q-98 0 -159.5 64.5t-61.5 169.5t61.5 169.5t159.5 64.5q73 0 127 -41v31l49 1v-678h-49v259z"/>
<glyph glyph-name="r" horiz-adv-x="331" unicode="r" d="M67 0v451h50v-111q41 62 75.5 90.5t73.5 28.5q40 0 80 -34l-27 -48q-40 32 -70 32q-58 0 -132 -124v-285h-50z"/>
<glyph glyph-name="s" horiz-adv-x="347" unicode="s" d="M34 82q68 -45 135 -45q43 0 68 20.5t25 56.5q0 15 -5 27t-11 19.5t-20 15.5t-24 12t-32 12t-35 13q-100 39 -100 124q0 55 40 89.5t103 34.5q58 0 123 -38v-52q-68 44 -126 44q-40 0 -66 -21.5t-26 -55.5q0 -32 26 -52t86 -41q64 -22 91.5 -49.5t27.5 -76.5 q0 -60 -39.5 -94.5t-109.5 -34.5q-69 0 -131 40v52z"/>
<glyph glyph-name="t" horiz-adv-x="264" unicode="t" d="M132 111q0 -42 11 -58.5t46 -16.5q32 0 75 23v-49q-41 -19 -82 -19q-57 0 -79.5 28t-22.5 93v297h-96v42h98v103l38 44h12v-147h121v-42h-121v-298z"/>
<glyph glyph-name="u" horiz-adv-x="484" unicode="u" d="M374 70q-64 -79 -156 -79q-77 0 -118.5 47.5t-41.5 135.5v277h50v-253q0 -161 115 -161q94 0 151 94v320h50v-451h-50v70z"/>
<glyph glyph-name="v" horiz-adv-x="422" unicode="v" d="M197 -9l-202 460h56l164 -376l156 376h52l-192 -460h-34z"/>
<glyph glyph-name="w" horiz-adv-x="716" unicode="w" d="M186 -9l-191 460h53l149 -370l144 370h28l134 -370l158 370h55l-202 -460h-28l-132 367l-141 -367h-27z"/>
<glyph glyph-name="x" horiz-adv-x="427" unicode="x" d="M-3 0l181 230l-177 221h61l149 -185l148 185h58l-174 -222l186 -229h-63l-155 193l-157 -193h-57z"/>
<glyph glyph-name="y" horiz-adv-x="422" unicode="y" d="M194 88l-189 363h56l160 -307l150 307h52l-332 -678h-51z"/>
<glyph glyph-name="z" horiz-adv-x="412" unicode="z" d="M11 0v19l295 384h-274v48h357v-20l-295 -384h295v-47h-378z"/>
<glyph glyph-name="braceleft" horiz-adv-x="500" unicode="{" d="M414 678h-18q-69 0 -90.5 -27t-21.5 -102v-118q0 -79 -19 -117.5t-76 -54.5q58 -17 76.5 -55t18.5 -117v-118q0 -75 21 -101.5t90 -26.5h19v-43h-21q-97 0 -128 38.5t-31 144.5v117q0 76 -28 108t-98 32q-3 0 -10.5 -0.5t-11.5 -0.5v44q9 -1 24 -1q69 0 96.5 32t27.5 108 v117q0 106 31 145t128 39h21v-43z"/>
<glyph glyph-name="bar" horiz-adv-x="500" unicode="|" d="M272 764v-1000h-44v1000h44z"/>
<glyph glyph-name="braceright" horiz-adv-x="500" unicode="}" d="M266 537v-117q0 -76 28 -108t98 -32q3 0 10.5 0.5t11.5 0.5v-44q-4 0 -11.5 0.5t-10.5 0.5q-70 0 -98 -32t-28 -108v-117q0 -106 -31 -144.5t-128 -38.5h-21v43h19q69 0 90 26.5t21 101.5v118q0 79 19 117t77 55q-58 16 -77 54.5t-19 117.5v118q0 75 -21.5 102t-90.5 27 h-18v43h21q97 0 128 -39t31 -145z"/>
<glyph glyph-name="asciitilde" horiz-adv-x="833" unicode="~" d="M747 316q-103 -72 -189 -72q-48 0 -141 34q-4 1 -20 7t-21 7.5t-18.5 6t-21 6t-19 4t-21.5 3.5t-20 1q-78 0 -189 -78v45q103 72 189 72q45 0 141 -34q97 -35 141 -35q78 0 189 78v-45z"/>
<glyph glyph-name="exclamdown" horiz-adv-x="252" unicode="¡" d="M142 489l15 -489h-61l14 489h32zM159 683v-100h-65v100h65z"/>
<glyph glyph-name="cent" d="M157 93l123 332h-2q-80 0 -132.5 -54.5t-52.5 -134.5q0 -84 64 -143zM390 28q-54 -27 -118 -27q-48 0 -97 20l-57 -154h-44l63 174q-99 78 -99 196q0 99 68.5 166.5t174.5 67.5h16l51 140h44l-53 -146q22 -3 42 -13v-56q-30 18 -59 23l-130 -350q38 -21 77 -21 q56 0 121 34v-54z" unicode="¢"/>
<glyph glyph-name="sterling" d="M59 -5l81 314h-84v51h98q46 166 115 251t155 85q18 0 49 -7l28 -50q-45 8 -64 8q-78 0 -133.5 -70.5t-93.5 -216.5h100v-51h-118l-66 -252q57 6 90 6q45 0 108 -9t82 -9q50 0 100 26v-55q-43 -24 -95 -24q-25 0 -94 9.5t-112 9.5q-67 0 -146 -16z" unicode="£"/>
<glyph glyph-name="currency" horiz-adv-x="606" unicode="¤" d="M466 433q0 67 -47.5 114t-114.5 47t-114.5 -47.5t-47.5 -113.5q0 -67 47.5 -114.5t114.5 -47.5t114.5 47.5t47.5 114.5zM175 588q58 46 128 46q71 0 129 -46l100 101l29 -29l-101 -100q45 -57 45 -128t-45 -128l101 -100l-29 -29l-100 101q-57 -45 -129 -45 q-71 0 -128 45l-101 -101l-28 29l101 100q-45 57 -45 128t45 128l-101 100l28 29z"/>
<glyph glyph-name="yen" horiz-adv-x="521" unicode="¥" d="M233 0v326h-212v40h212l-68 87h-144v41h112l-150 189h64l213 -272l214 272h63l-148 -189h110v-41h-144l-68 -87h212v-40h-212v-326h-54z"/>
<glyph glyph-name="brokenbar" horiz-adv-x="500" unicode="¦" d="M272 199v-370h-44v370h44zM272 699v-370h-44v370h44z"/>
<glyph glyph-name="section" d="M205 221l93 -43q92 38 92 104q0 32 -21 54.5t-69 44.5l-93 42q-48 -21 -70.5 -45t-22.5 -58q0 -32 21 -54.5t70 -44.5zM97 -3q74 -50 149 -50q49 0 76.5 22.5t27.5 62.5q0 33 -19.5 54.5t-64.5 43.5l-69 33q-75 37 -105.5 67.5t-30.5 89.5q0 89 100 129q-64 39 -64 112 q0 63 42.5 98.5t119.5 35.5q76 0 138 -35v-60q-64 43 -139 43q-47 0 -75 -21t-28 -55q0 -32 19 -52.5t65 -42.5l69 -34q74 -37 104.5 -66.5t30.5 -85.5q0 -92 -100 -133q64 -41 64 -119q0 -62 -44 -100.5t-120 -38.5q-79 0 -146 44v58z" unicode="§"/>
<glyph glyph-name="dieresis" horiz-adv-x="500" unicode="¨" d="M294 552v80h69v-80h-69zM137 552v80h69v-80h-69z"/>
<glyph glyph-name="copyright" horiz-adv-x="833" unicode="©" d="M528 448q-10 40 -39 62t-72 22q-61 0 -95.5 -47.5t-34.5 -133.5q0 -83 35 -130.5t95 -47.5q44 0 76 25.5t41 68.5h50q-5 -60 -52.5 -98t-117.5 -38q-84 0 -134 59.5t-50 163.5q0 101 52.5 160.5t137.5 59.5q64 0 108.5 -35t50.5 -91h-51zM738 352q0 134 -93 227 q-95 95 -229 95t-225 -93q-96 -98 -96 -229t95 -226t226 -95t229 96q93 91 93 225zM416 709q149 0 254 -105q103 -103 103 -252t-103 -250q-109 -107 -254 -107t-251 106q-105 105 -105 251t106 254q101 103 250 103z"/>
<glyph glyph-name="ordfeminine" horiz-adv-x="309" unicode="ª" d="M218 431v98q-75 -1 -117 -24.5t-42 -61.5q0 -25 17.5 -39t48.5 -14q41 0 93 41zM218 398q-53 -38 -103 -38q-42 0 -68 23t-26 58q0 52 50.5 82t146.5 34v34q0 35 -18 51.5t-58 16.5q-48 0 -104 -39v35q56 35 107 35q59 0 84.5 -26t25.5 -81v-166q0 -20 12 -20q8 0 38 25 v-33q-31 -28 -54 -28q-30 0 -33 37z"/>
<glyph glyph-name="guillemotleft" horiz-adv-x="417" unicode="«" d="M380 378l-123 -153l123 -152h-63l-123 152l123 153h63zM222 378l-123 -153l123 -152h-63l-122 152l122 153h63z"/>
<glyph glyph-name="logicalnot" horiz-adv-x="833" unicode="¬" d="M709 418v-245h-39v206h-546v39h585z"/>
<glyph glyph-name="registered" horiz-adv-x="833" unicode="®" d="M416 526h-82v-153h82q68 0 96 16.5t28 62.5q0 74 -124 74zM427 564q87 0 128.5 -27.5t41.5 -86.5q0 -43 -27 -72.5t-72 -34.5l93 -192h-64l-89 184h-104v-184h-56v413h149zM738 352q0 134 -93 227q-95 95 -229 95t-225 -93q-96 -98 -96 -229t95 -226t226 -95t229 96 q93 91 93 225zM416 709q149 0 254 -105q103 -103 103 -252t-103 -250q-109 -107 -254 -107t-251 106q-105 105 -105 251t106 254q101 103 250 103z"/>
<glyph glyph-name="macron" horiz-adv-x="500" unicode="¯" d="M125 563v57h250v-57h-250z"/>
<glyph glyph-name="degree" horiz-adv-x="329" unicode="°" d="M269 574q0 43 -30.5 73.5t-73.5 30.5t-73.5 -30t-30.5 -74q0 -43 30.5 -73.5t73.5 -30.5t73.5 30.5t30.5 73.5zM165 708q55 0 94 -39.5t39 -94.5t-39 -94t-95 -39t-94.5 38.5t-38.5 94.5t39 95t95 39z"/>
<glyph glyph-name="plusminus" horiz-adv-x="833" unicode="±" d="M709 69v-39h-585v39h585zM436 567v-173h273v-39h-273v-172h-39v172h-273v39h273v173h39z"/>
<glyph glyph-name="twosuperior" horiz-adv-x="333" unicode="²" d="M27 273v5q207 188 207 293q0 40 -29 65.5t-76 25.5q-44 0 -95 -43v34q47 37 102 37q59 0 96 -33.5t37 -87.5q0 -94 -168 -265h211v-31h-285z"/>
<glyph glyph-name="threesuperior" horiz-adv-x="333" unicode="³" d="M31 288v32q48 -24 96 -24q51 0 81 24t30 65q0 42 -31 66t-85 24v30q53 3 82 23.5t29 55.5q0 34 -29 56t-75 22q-44 0 -91 -29v31q41 25 94 25q62 0 98.5 -28.5t36.5 -74.5q0 -72 -79 -95q85 -24 85 -105q0 -54 -39.5 -87t-104.5 -33q-57 0 -98 22z"/>
<glyph glyph-name="acute" horiz-adv-x="500" unicode="´" d="M234 515h-45l102 170h74z"/>
<glyph glyph-name="mu" horiz-adv-x="534" unicode="µ" d="M159 519l-60 -288q-8 -40 -8 -69q0 -61 29 -93.5t85 -32.5q61 0 106.5 52.5t67.5 153.5l61 277h59l-81 -384q-12 -57 -12 -66q0 -31 33 -31q8 0 19 1l-9 -47q-28 -6 -37 -6q-65 0 -65 62q0 6 2 22q-44 -84 -152 -84q-48 0 -83 22t-51 62l-58 -277h-59l154 726h59z"/>
<glyph glyph-name="paragraph" horiz-adv-x="500" unicode="¶" d="M455 691h-63v-691h-34v691h-94v-691h-34v382q-86 4 -136 50.5t-50 119.5q0 76 52.5 123t140.5 47h218v-31z"/>
<glyph glyph-name="periodcentered" horiz-adv-x="252" unicode="·" d="M81 342q0 19 13 32t32 13t32 -13t13 -32t-13 -32t-32 -13t-32 13t-13 32z"/>
<glyph glyph-name="cedilla" horiz-adv-x="500" unicode="¸" d="M133 -205v38q74 -17 116 -17q63 0 63 44q0 51 -70 51q-15 0 -23 -1v90h31v-54h7q110 0 110 -84q0 -41 -28.5 -63.5t-82.5 -22.5q-55 0 -123 19z"/>
<glyph glyph-name="onesuperior" horiz-adv-x="333" unicode="¹" d="M150 273v410h34v-410h-34z"/>
<glyph glyph-name="ordmasculine" horiz-adv-x="397" unicode="º" d="M64 524q0 -55 39.5 -93t95.5 -38t95 38t39 93q0 56 -39 94.5t-95 38.5t-95.5 -38.5t-39.5 -94.5zM23 525q0 69 51 117t125 48q73 0 124.5 -48t51.5 -117q0 -68 -52 -117q-52 -47 -124 -47q-74 0 -125 47.5t-51 116.5z"/>
<glyph glyph-name="guillemotright" horiz-adv-x="417" unicode="»" d="M37 378h62l123 -153l-123 -152h-62l122 152zM194 378h63l123 -153l-123 -152h-63l123 152z"/>
<glyph glyph-name="onequarter" horiz-adv-x="803" unicode="¼" d="M692 171v159l-150 -159h150zM692 0v145h-196v12l216 231h12v-217h62v-26h-62v-145h-32zM599 694h52l-447 -706h-53zM143 300v382h32v-382h-32z"/>
<glyph glyph-name="onehalf" horiz-adv-x="803" unicode="½" d="M511 0v5q198 176 198 273q0 38 -28 61.5t-73 23.5q-42 0 -91 -40v31q45 35 98 35q56 0 91 -31.5t35 -81.5q0 -89 -160 -247h201v-29h-271zM599 694h52l-447 -706h-53zM143 300v382h32v-382h-32z"/>
<glyph glyph-name="threequarters" horiz-adv-x="803" unicode="¾" d="M692 171v159l-150 -159h150zM692 0v145h-196v12l216 231h12v-217h62v-26h-62v-145h-32zM599 694h52l-447 -706h-53zM30 314v30q44 -22 91 -22q49 0 77.5 22.5t28.5 60.5t-29 60.5t-81 23.5v27q50 3 77.5 22.5t27.5 51.5t-27 52.5t-72 20.5q-42 0 -87 -27v29q40 24 90 24 q59 0 94 -27t35 -70q0 -67 -75 -88q80 -24 80 -99q0 -50 -37 -80.5t-100 -30.5q-55 0 -93 20z"/>
<glyph glyph-name="questiondown" horiz-adv-x="318" unicode="¿" d="M211 683v-100h-65v100h65zM182 514q43 -42 43 -99q0 -22 -12 -51t-23.5 -48t-41.5 -65q-41 -64 -41 -118q0 -48 20 -73.5t56 -25.5q40 0 80 49l8 -5l-21 -70q-30 -20 -70 -20q-54 0 -90 40t-36 103q0 66 56 158q8 12 31 44.5t32.5 54.5t9.5 47q0 38 -19 64z"/>
<glyph glyph-name="Agrave" horiz-adv-x="566" unicode="À" d="M299 749l-131 170h74l102 -170h-45zM152 284h262l-131 310zM-26 0l298 689h22l298 -689h-58l-101 238h-300l-101 -238h-58z"/>
<glyph glyph-name="Aacute" horiz-adv-x="566" unicode="Á" d="M267 749h-45l102 170h74zM152 284h262l-131 310zM-26 0l298 689h22l298 -689h-58l-101 238h-300l-101 -238h-58z"/>
<glyph glyph-name="Acircumflex" horiz-adv-x="566" unicode="Â" d="M148 749l98 170h74l98 -170h-45l-90 128l-90 -128h-45zM152 284h262l-131 310zM-26 0l298 689h22l298 -689h-58l-101 238h-300l-101 -238h-58z"/>
<glyph glyph-name="Atilde" horiz-adv-x="566" unicode="Ã" d="M424 877q-26 -89 -93 -89q-14 0 -32 5l-47 15q-12 4 -26 4q-30 0 -45 -35h-39q21 89 95 89q15 0 26 -4l47 -15q14 -5 27 -5q32 0 47 35h40zM152 284h262l-131 310zM-26 0l298 689h22l298 -689h-58l-101 238h-300l-101 -238h-58z"/>
<glyph glyph-name="Adieresis" horiz-adv-x="566" unicode="Ä" d="M327 786v80h69v-80h-69zM170 786v80h69v-80h-69zM152 284h262l-131 310zM-26 0l298 689h22l298 -689h-58l-101 238h-300l-101 -238h-58z"/>
<glyph glyph-name="Aring" horiz-adv-x="566" unicode="Å" d="M210 837q0 -31 21 -52t52 -21q30 0 51.5 21t21.5 52t-21 52t-52 21t-52 -21t-21 -52zM165 837q0 49 34.5 83.5t83.5 34.5t83 -34t34 -84q0 -49 -34 -83t-83 -34q-50 0 -84 34t-34 83zM152 284h262l-131 310zM-26 0l298 689h22l298 -689h-58l-101 238h-300l-101 -238h-58z "/>
<glyph glyph-name="AE" horiz-adv-x="844" unicode="Æ" d="M431 368v271h-7l-162 -271h169zM431 0v324h-198l-203 -324h-58l426 683h403v-44h-315v-271h305v-44h-305v-278h323v-46h-378z"/>
<glyph glyph-name="Ccedilla" horiz-adv-x="679" unicode="Ç" d="M250 -205v38q74 -17 116 -17q63 0 63 44q0 51 -70 51q-15 0 -23 -1v84q-73 13 -138 55q-75 49 -116.5 126.5t-41.5 168.5q0 145 105 247q107 104 264 104q113 0 239 -64v-57q-135 72 -241 72q-96 0 -173 -51q-64 -43 -99 -109t-35 -144q0 -126 87 -216q86 -89 220 -89 q105 0 241 72v-58q-122 -63 -239 -63q-14 0 -42 2v-44h7q110 0 110 -84q0 -41 -28.5 -63.5t-82.5 -22.5q-55 0 -123 19z"/>
<glyph glyph-name="Egrave" horiz-adv-x="493" unicode="È" d="M283 749l-131 170h74l102 -170h-45zM80 0v683h370v-44h-315v-271h305v-44h-305v-278h323v-46h-378z"/>
<glyph glyph-name="Eacute" horiz-adv-x="493" unicode="É" d="M251 749h-45l102 170h74zM80 0v683h370v-44h-315v-271h305v-44h-305v-278h323v-46h-378z"/>
<glyph glyph-name="Ecircumflex" horiz-adv-x="493" unicode="Ê" d="M132 749l98 170h74l98 -170h-45l-90 128l-90 -128h-45zM80 0v683h370v-44h-315v-271h305v-44h-305v-278h323v-46h-378z"/>
<glyph glyph-name="Edieresis" horiz-adv-x="493" unicode="Ë" d="M311 786v80h69v-80h-69zM154 786v80h69v-80h-69zM80 0v683h370v-44h-315v-271h305v-44h-305v-278h323v-46h-378z"/>
<glyph glyph-name="Igrave" horiz-adv-x="226" unicode="Ì" d="M129 749l-131 170h74l102 -170h-45zM83 0v683h55v-683h-55z"/>
<glyph glyph-name="Iacute" horiz-adv-x="226" unicode="Í" d="M97 749h-45l102 170h74zM83 0v683h55v-683h-55z"/>
<glyph glyph-name="Icircumflex" horiz-adv-x="226" unicode="Î" d="M-22 749l98 170h74l98 -170h-45l-90 128l-90 -128h-45zM83 0v683h55v-683h-55z"/>
<glyph glyph-name="Idieresis" horiz-adv-x="226" unicode="Ï" d="M157 786v80h69v-80h-69zM0 786v80h69v-80h-69zM83 0v683h55v-683h-55z"/>
<glyph glyph-name="Eth" horiz-adv-x="736" unicode="Ð" d="M307 634h-165v-268h191v-45h-191v-273h165q132 0 200 46q57 38 89.5 103.5t32.5 143.5t-32.5 143.5t-89.5 103.5q-68 46 -200 46zM322 683q147 0 231 -62q64 -48 100.5 -121.5t36.5 -157.5t-36.5 -157.5t-100.5 -121.5q-85 -63 -231 -63h-238v321h-84v45h84v317h238z"/>
<glyph glyph-name="Ntilde" horiz-adv-x="772" unicode="Ñ" d="M531 877q-26 -89 -93 -89q-14 0 -32 5l-47 15q-12 4 -26 4q-30 0 -45 -35h-39q21 89 95 89q15 0 26 -4l47 -15q14 -5 27 -5q32 0 47 35h40zM80 0v683h57l500 -596v596h55v-683h-51l-506 604v-604h-55z"/>
<glyph glyph-name="Ograve" horiz-adv-x="797" unicode="Ò" d="M415 749l-131 170h74l102 -170h-45zM100 342q0 -126 87 -216q87 -89 212 -89t212 89t87 216q0 125 -87 214q-88 90 -212 90q-122 0 -212 -90q-87 -87 -87 -214zM40 344q0 144 105 247q106 103 254 103q149 0 254 -103t105 -249q0 -110 -61 -198q-51 -74 -129 -115 t-169 -41q-151 0 -254 103q-105 105 -105 253z"/>
<glyph glyph-name="Oacute" horiz-adv-x="797" unicode="Ó" d="M383 749h-45l102 170h74zM100 342q0 -126 87 -216q87 -89 212 -89t212 89t87 216q0 125 -87 214q-88 90 -212 90q-122 0 -212 -90q-87 -87 -87 -214zM40 344q0 144 105 247q106 103 254 103q149 0 254 -103t105 -249q0 -110 -61 -198q-51 -74 -129 -115t-169 -41 q-151 0 -254 103q-105 105 -105 253z"/>
<glyph glyph-name="Ocircumflex" horiz-adv-x="797" unicode="Ô" d="M264 749l98 170h74l98 -170h-45l-90 128l-90 -128h-45zM100 342q0 -126 87 -216q87 -89 212 -89t212 89t87 216q0 125 -87 214q-88 90 -212 90q-122 0 -212 -90q-87 -87 -87 -214zM40 344q0 144 105 247q106 103 254 103q149 0 254 -103t105 -249q0 -110 -61 -198 q-51 -74 -129 -115t-169 -41q-151 0 -254 103q-105 105 -105 253z"/>
<glyph glyph-name="Otilde" horiz-adv-x="797" unicode="Õ" d="M540 877q-26 -89 -93 -89q-14 0 -32 5l-47 15q-12 4 -26 4q-30 0 -45 -35h-39q21 89 95 89q15 0 26 -4l47 -15q14 -5 27 -5q32 0 47 35h40zM100 342q0 -126 87 -216q87 -89 212 -89t212 89t87 216q0 125 -87 214q-88 90 -212 90q-122 0 -212 -90q-87 -87 -87 -214z M40 344q0 144 105 247q106 103 254 103q149 0 254 -103t105 -249q0 -110 -61 -198q-51 -74 -129 -115t-169 -41q-151 0 -254 103q-105 105 -105 253z"/>
<glyph glyph-name="Odieresis" horiz-adv-x="797" unicode="Ö" d="M443 786v80h69v-80h-69zM286 786v80h69v-80h-69zM100 342q0 -126 87 -216q87 -89 212 -89t212 89t87 216q0 125 -87 214q-88 90 -212 90q-122 0 -212 -90q-87 -87 -87 -214zM40 344q0 144 105 247q106 103 254 103q149 0 254 -103t105 -249q0 -110 -61 -198 q-51 -74 -129 -115t-169 -41q-151 0 -254 103q-105 105 -105 253z"/>
<glyph glyph-name="multiply" horiz-adv-x="833" unicode="×" d="M417 326l238 238l28 -28l-238 -238l238 -238l-28 -28l-238 238l-238 -238l-28 28l238 238l-238 238l28 28z"/>
<glyph glyph-name="Oslash" horiz-adv-x="797" unicode="Ø" d="M615 552l-396 -454q84 -61 188 -61q57 0 112 24.5t96 68.5q83 89 83 215q0 118 -83 207zM185 128l396 455q-80 63 -187 63q-92 0 -175 -62q-56 -42 -87.5 -105.5t-31.5 -136.5q0 -117 85 -214zM69 -5l80 92q-109 101 -109 252q0 147 100 247q108 108 258 108 q117 0 218 -71l71 83l34 -31l-70 -82q107 -107 107 -247q0 -146 -100 -249q-106 -109 -254 -109q-124 0 -220 70l-81 -93z"/>
<glyph glyph-name="Ugrave" horiz-adv-x="713" unicode="Ù" d="M373 749l-131 170h74l102 -170h-45zM130 283q0 -111 62 -175t164 -64t164 64t62 175v400h57v-397q0 -139 -77 -219t-206 -80t-205.5 80t-76.5 219v397h56v-400z"/>
<glyph glyph-name="Uacute" horiz-adv-x="713" unicode="Ú" d="M341 749h-45l102 170h74zM130 283q0 -111 62 -175t164 -64t164 64t62 175v400h57v-397q0 -139 -77 -219t-206 -80t-205.5 80t-76.5 219v397h56v-400z"/>
<glyph glyph-name="Ucircumflex" horiz-adv-x="713" unicode="Û" d="M222 749l98 170h74l98 -170h-45l-90 128l-90 -128h-45zM130 283q0 -111 62 -175t164 -64t164 64t62 175v400h57v-397q0 -139 -77 -219t-206 -80t-205.5 80t-76.5 219v397h56v-400z"/>
<glyph glyph-name="Udieresis" horiz-adv-x="713" unicode="Ü" d="M401 786v80h69v-80h-69zM244 786v80h69v-80h-69zM130 283q0 -111 62 -175t164 -64t164 64t62 175v400h57v-397q0 -139 -77 -219t-206 -80t-205.5 80t-76.5 219v397h56v-400z"/>
<glyph glyph-name="Yacute" horiz-adv-x="544" unicode="Ý" d="M256 749h-45l102 170h74zM244 0v366l-265 317h68l225 -270l225 270h68l-265 -317v-366h-56z"/>
<glyph glyph-name="Thorn" horiz-adv-x="507" unicode="Þ" d="M135 181v-181h-55v683h55v-137h111q225 0 225 -183q0 -83 -54.5 -132.5t-146.5 -49.5h-135zM135 501v-272h104q88 0 130 33t42 104q0 66 -41.5 100.5t-120.5 34.5h-114z"/>
<glyph glyph-name="germandbls" horiz-adv-x="498" unicode="ß" d="M62 0v473q0 217 192 217q85 0 133.5 -44t48.5 -119q0 -100 -93 -145q123 -39 123 -176q0 -99 -51.5 -157.5t-135.5 -58.5q-31 0 -58 10v52q49 -11 64 -11q57 0 91.5 43t34.5 116q0 147 -133 155v50q51 3 78 34.5t27 88.5q0 54 -34.5 85.5t-94.5 31.5q-75 0 -108.5 -41.5 t-33.5 -130.5v-473h-50z"/>
<glyph glyph-name="agrave" horiz-adv-x="412" unicode="à" d="M217 515l-131 170h74l102 -170h-45zM290 91v141q-100 -1 -155.5 -35.5t-55.5 -88.5q0 -35 23.5 -55t64.5 -20q54 0 123 58zM291 44q-70 -54 -138 -54q-56 0 -90.5 32.5t-34.5 83.5q0 74 67 117.5t195 48.5v48q0 50 -24 73.5t-77 23.5q-63 0 -138 -55v49q74 50 142 50 q79 0 113 -36.5t34 -116.5v-236q0 -29 16 -29q3 0 7 1.5t7 3t8 5.5t8 6.5t10 9t11 9.5v-46q-44 -41 -73 -41q-22 0 -31.5 12.5t-11.5 40.5z"/>
<glyph glyph-name="aacute" horiz-adv-x="412" unicode="á" d="M185 515h-45l102 170h74zM290 91v141q-100 -1 -155.5 -35.5t-55.5 -88.5q0 -35 23.5 -55t64.5 -20q54 0 123 58zM291 44q-70 -54 -138 -54q-56 0 -90.5 32.5t-34.5 83.5q0 74 67 117.5t195 48.5v48q0 50 -24 73.5t-77 23.5q-63 0 -138 -55v49q74 50 142 50 q79 0 113 -36.5t34 -116.5v-236q0 -29 16 -29q3 0 7 1.5t7 3t8 5.5t8 6.5t10 9t11 9.5v-46q-44 -41 -73 -41q-22 0 -31.5 12.5t-11.5 40.5z"/>
<glyph glyph-name="acircumflex" horiz-adv-x="412" unicode="â" d="M66 515l98 170h74l98 -170h-45l-90 128l-90 -128h-45zM290 91v141q-100 -1 -155.5 -35.5t-55.5 -88.5q0 -35 23.5 -55t64.5 -20q54 0 123 58zM291 44q-70 -54 -138 -54q-56 0 -90.5 32.5t-34.5 83.5q0 74 67 117.5t195 48.5v48q0 50 -24 73.5t-77 23.5q-63 0 -138 -55v49 q74 50 142 50q79 0 113 -36.5t34 -116.5v-236q0 -29 16 -29q3 0 7 1.5t7 3t8 5.5t8 6.5t10 9t11 9.5v-46q-44 -41 -73 -41q-22 0 -31.5 12.5t-11.5 40.5z"/>
<glyph glyph-name="atilde" horiz-adv-x="412" unicode="ã" d="M342 643q-26 -89 -93 -89q-14 0 -32 5l-47 15q-12 4 -26 4q-30 0 -45 -35h-39q21 89 95 89q15 0 26 -4l47 -15q14 -5 27 -5q32 0 47 35h40zM290 91v141q-100 -1 -155.5 -35.5t-55.5 -88.5q0 -35 23.5 -55t64.5 -20q54 0 123 58zM291 44q-70 -54 -138 -54 q-56 0 -90.5 32.5t-34.5 83.5q0 74 67 117.5t195 48.5v48q0 50 -24 73.5t-77 23.5q-63 0 -138 -55v49q74 50 142 50q79 0 113 -36.5t34 -116.5v-236q0 -29 16 -29q3 0 7 1.5t7 3t8 5.5t8 6.5t10 9t11 9.5v-46q-44 -41 -73 -41q-22 0 -31.5 12.5t-11.5 40.5z"/>
<glyph glyph-name="adieresis" horiz-adv-x="412" unicode="ä" d="M245 552v80h69v-80h-69zM88 552v80h69v-80h-69zM290 91v141q-100 -1 -155.5 -35.5t-55.5 -88.5q0 -35 23.5 -55t64.5 -20q54 0 123 58zM291 44q-70 -54 -138 -54q-56 0 -90.5 32.5t-34.5 83.5q0 74 67 117.5t195 48.5v48q0 50 -24 73.5t-77 23.5q-63 0 -138 -55v49 q74 50 142 50q79 0 113 -36.5t34 -116.5v-236q0 -29 16 -29q3 0 7 1.5t7 3t8 5.5t8 6.5t10 9t11 9.5v-46q-44 -41 -73 -41q-22 0 -31.5 12.5t-11.5 40.5z"/>
<glyph glyph-name="aring" horiz-adv-x="412" unicode="å" d="M82 612q0 49 34 83t84 34t84 -34t34 -83q0 -50 -34 -84t-84 -34t-84 34t-34 84zM127 611q0 -31 21 -52t52 -21q30 0 51.5 21t21.5 52t-21 52.5t-52 21.5t-52 -21.5t-21 -52.5zM291 44q-70 -54 -138 -54q-56 0 -90.5 32.5t-34.5 83.5q0 74 67 117.5t195 48.5v48 q0 50 -24 73.5t-77 23.5q-63 0 -138 -55v49q74 50 142 50q79 0 113 -36.5t34 -116.5v-230q0 -21 2.5 -28t14.5 -7q9 0 50 35v-46q-44 -41 -73 -41q-22 0 -31.5 12.5t-11.5 40.5zM290 91v141q-100 -1 -155.5 -35.5t-55.5 -88.5q0 -35 23.5 -55t64.5 -20q54 0 123 58z"/>
<glyph glyph-name="ae" horiz-adv-x="714" unicode="æ" d="M357 284h258q-7 60 -41 96t-80 36q-52 0 -89.5 -35.5t-47.5 -96.5zM305 95v147q-109 -5 -167 -39t-58 -89q0 -81 94 -81q61 0 131 62zM343 77q-93 -87 -184 -87q-60 0 -95.5 32.5t-35.5 86.5q0 78 72 125t205 50v36q0 50 -24 73t-77 23q-72 0 -144 -57v48q75 54 148 54 q105 0 141 -78q54 76 143 76q82 0 131.5 -58.5t49.5 -158.5h-316v-9q0 -90 42 -142.5t110 -52.5q77 0 157 67v-56q-77 -59 -158 -59q-104 0 -165 87z"/>
<glyph glyph-name="ccedilla" horiz-adv-x="403" unicode="ç" d="M112 -205v38q74 -17 116 -17q63 0 63 44q0 51 -70 51q-15 0 -23 -1v90h3q-76 20 -122 81t-46 145q0 99 68.5 167t173.5 68q50 0 101 -20v-56q-51 29 -108 29q-75 0 -127.5 -55t-52.5 -134q0 -80 52.5 -134t127.5 -54q56 0 117 37v-56q-55 -27 -114 -27q-21 0 -42 3v-48h7 q110 0 110 -84q0 -41 -28.5 -63.5t-82.5 -22.5q-55 0 -123 19z"/>
<glyph glyph-name="egrave" horiz-adv-x="478" unicode="è" d="M256 515l-131 170h74l102 -170h-45zM431 50q-85 -60 -172 -60q-101 0 -162.5 66.5t-61.5 176.5q0 102 58 164.5t152 62.5q87 0 141 -59t54 -157v-2h-352v-5q0 -90 47.5 -144t122.5 -54q86 0 173 66v-55zM94 285h287q-8 60 -46.5 96t-93.5 36t-96.5 -36.5t-50.5 -95.5z "/>
<glyph glyph-name="eacute" horiz-adv-x="478" unicode="é" d="M224 515h-45l102 170h74zM431 50q-85 -60 -172 -60q-101 0 -162.5 66.5t-61.5 176.5q0 102 58 164.5t152 62.5q87 0 141 -59t54 -157v-2h-352v-5q0 -90 47.5 -144t122.5 -54q86 0 173 66v-55zM94 285h287q-8 60 -46.5 96t-93.5 36t-96.5 -36.5t-50.5 -95.5z"/>
<glyph glyph-name="ecircumflex" horiz-adv-x="478" unicode="ê" d="M105 515l98 170h74l98 -170h-45l-90 128l-90 -128h-45zM431 50q-85 -60 -172 -60q-101 0 -162.5 66.5t-61.5 176.5q0 102 58 164.5t152 62.5q87 0 141 -59t54 -157v-2h-352v-5q0 -90 47.5 -144t122.5 -54q86 0 173 66v-55zM94 285h287q-8 60 -46.5 96t-93.5 36 t-96.5 -36.5t-50.5 -95.5z"/>
<glyph glyph-name="edieresis" horiz-adv-x="478" unicode="ë" d="M284 552v80h69v-80h-69zM127 552v80h69v-80h-69zM431 50q-85 -60 -172 -60q-101 0 -162.5 66.5t-61.5 176.5q0 102 58 164.5t152 62.5q87 0 141 -59t54 -157v-2h-352v-5q0 -90 47.5 -144t122.5 -54q86 0 173 66v-55zM94 285h287q-8 60 -46.5 96t-93.5 36t-96.5 -36.5 t-50.5 -95.5z"/>
<glyph glyph-name="igrave" horiz-adv-x="178" unicode="ì" d="M105 515l-131 170h74l102 -170h-45zM64 0v451h51v-451h-51z"/>
<glyph glyph-name="iacute" horiz-adv-x="178" unicode="í" d="M73 515h-45l102 170h74zM64 0v451h51v-451h-51z"/>
<glyph glyph-name="icircumflex" horiz-adv-x="178" unicode="î" d="M-46 515l98 170h74l98 -170h-45l-90 128l-90 -128h-45zM64 0v451h51v-451h-51z"/>
<glyph glyph-name="idieresis" horiz-adv-x="178" unicode="ï" d="M133 552v80h69v-80h-69zM-24 552v80h69v-80h-69zM64 0v451h51v-451h-51z"/>
<glyph glyph-name="eth" horiz-adv-x="529" unicode="ð" d="M378 414q-60 83 -104 131l-124 -62l-16 32l111 58q-45 42 -92 77l27 33q60 -41 108 -87l124 62l19 -32l-113 -58q177 -192 177 -347q0 -95 -67 -162.5t-163 -67.5t-163 66.5t-67 163.5q0 96 66.5 163t163.5 67q65 0 113 -37zM89 221q0 -78 51.5 -131.5t124.5 -53.5 q72 0 124 54t52 131q0 78 -51.5 131.5t-124.5 53.5t-124.5 -54t-51.5 -131z"/>
<glyph glyph-name="ntilde" horiz-adv-x="484" unicode="ñ" d="M386 643q-26 -89 -93 -89q-14 0 -32 5l-47 15q-12 4 -26 4q-30 0 -45 -35h-39q21 89 95 89q15 0 26 -4l47 -15q14 -5 27 -5q32 0 47 35h40zM60 0v451h50v-72q65 80 156 80q77 0 118.5 -48t41.5 -136v-275h-50v251q0 162 -115 162q-94 0 -151 -95v-318h-50z"/>
<glyph glyph-name="ograve" horiz-adv-x="529" unicode="ò" d="M281 515l-131 170h74l102 -170h-45zM85 225q0 -79 53 -133.5t127 -54.5t126.5 54.5t52.5 133.5t-52.5 134t-126.5 55q-75 0 -127.5 -55t-52.5 -134zM30 226q0 98 68 166.5t167 68.5q98 0 166.5 -68.5t68.5 -166.5q0 -97 -70 -167q-68 -68 -165 -68q-98 0 -166.5 68 t-68.5 167z"/>
<glyph glyph-name="oacute" horiz-adv-x="529" unicode="ó" d="M249 515h-45l102 170h74zM85 225q0 -79 53 -133.5t127 -54.5t126.5 54.5t52.5 133.5t-52.5 134t-126.5 55q-75 0 -127.5 -55t-52.5 -134zM30 226q0 98 68 166.5t167 68.5q98 0 166.5 -68.5t68.5 -166.5q0 -97 -70 -167q-68 -68 -165 -68q-98 0 -166.5 68t-68.5 167z"/>
<glyph glyph-name="ocircumflex" horiz-adv-x="529" unicode="ô" d="M130 515l98 170h74l98 -170h-45l-90 128l-90 -128h-45zM85 225q0 -79 53 -133.5t127 -54.5t126.5 54.5t52.5 133.5t-52.5 134t-126.5 55q-75 0 -127.5 -55t-52.5 -134zM30 226q0 98 68 166.5t167 68.5q98 0 166.5 -68.5t68.5 -166.5q0 -97 -70 -167q-68 -68 -165 -68 q-98 0 -166.5 68t-68.5 167z"/>
<glyph glyph-name="otilde" horiz-adv-x="529" unicode="õ" d="M406 643q-26 -89 -93 -89q-14 0 -32 5l-47 15q-12 4 -26 4q-30 0 -45 -35h-39q21 89 95 89q15 0 26 -4l47 -15q14 -5 27 -5q32 0 47 35h40zM85 225q0 -79 53 -133.5t127 -54.5t126.5 54.5t52.5 133.5t-52.5 134t-126.5 55q-75 0 -127.5 -55t-52.5 -134zM30 226 q0 98 68 166.5t167 68.5q98 0 166.5 -68.5t68.5 -166.5q0 -97 -70 -167q-68 -68 -165 -68q-98 0 -166.5 68t-68.5 167z"/>
<glyph glyph-name="odieresis" horiz-adv-x="529" unicode="ö" d="M309 552v80h69v-80h-69zM152 552v80h69v-80h-69zM85 225q0 -79 53 -133.5t127 -54.5t126.5 54.5t52.5 133.5t-52.5 134t-126.5 55q-75 0 -127.5 -55t-52.5 -134zM30 226q0 98 68 166.5t167 68.5q98 0 166.5 -68.5t68.5 -166.5q0 -97 -70 -167q-68 -68 -165 -68 q-98 0 -166.5 68t-68.5 167z"/>
<glyph glyph-name="divide" horiz-adv-x="833" unicode="÷" d="M417 179q20 0 34 -14.5t14 -34.5t-14 -34t-34 -14t-34 13.5t-14 34.5q0 20 14.5 34.5t33.5 14.5zM709 318v-39h-585v39h585zM417 515q20 0 34 -14t14 -34t-14 -34.5t-34 -14.5t-34 14.5t-14 34.5t14 34t34 14z"/>
<glyph glyph-name="oslash" horiz-adv-x="529" unicode="ø" d="M400 349l-245 -273q48 -39 110 -39q74 0 126.5 54.5t52.5 133.5q0 67 -44 124zM125 106l245 271q-41 37 -105 37q-75 0 -127.5 -55t-52.5 -134q0 -69 40 -119zM32 3l59 65q-61 67 -61 154q0 102 68 170.5t171 68.5q75 0 135 -45l57 63l31 -28l-57 -64q65 -73 65 -161 q0 -97 -70 -167q-68 -68 -165 -68q-77 0 -144 48l-58 -64z"/>
<glyph glyph-name="ugrave" horiz-adv-x="484" unicode="ù" d="M254 515l-131 170h74l102 -170h-45zM374 70q-64 -79 -156 -79q-77 0 -118.5 47.5t-41.5 135.5v277h50v-253q0 -161 115 -161q94 0 151 94v320h50v-451h-50v70z"/>
<glyph glyph-name="uacute" horiz-adv-x="484" unicode="ú" d="M222 515h-45l102 170h74zM374 70q-64 -79 -156 -79q-77 0 -118.5 47.5t-41.5 135.5v277h50v-253q0 -161 115 -161q94 0 151 94v320h50v-451h-50v70z"/>
<glyph glyph-name="ucircumflex" horiz-adv-x="484" unicode="û" d="M103 515l98 170h74l98 -170h-45l-90 128l-90 -128h-45zM374 70q-64 -79 -156 -79q-77 0 -118.5 47.5t-41.5 135.5v277h50v-253q0 -161 115 -161q94 0 151 94v320h50v-451h-50v70z"/>
<glyph glyph-name="udieresis" horiz-adv-x="484" unicode="ü" d="M282 552v80h69v-80h-69zM125 552v80h69v-80h-69zM374 70q-64 -79 -156 -79q-77 0 -118.5 47.5t-41.5 135.5v277h50v-253q0 -161 115 -161q94 0 151 94v320h50v-451h-50v70z"/>
<glyph glyph-name="yacute" horiz-adv-x="422" unicode="ý" d="M195 515h-45l102 170h74zM194 88l-189 363h56l160 -307l150 307h52l-332 -678h-51z"/>
<glyph glyph-name="thorn" horiz-adv-x="491" unicode="þ" d="M113 363v-276q48 -51 121 -51q75 0 123 52t48 137t-48 137t-123 52q-73 0 -121 -51zM65 -227v910h48v-264q52 41 131 41q95 0 156 -65t61 -169t-61 -169t-156 -65q-80 0 -131 40v-259h-48z"/>
<glyph glyph-name="OE" horiz-adv-x="904" unicode="Œ" d="M490 47v590q-21 2 -60 2q-157 0 -239.5 -76t-82.5 -221t82.5 -220.5t239.5 -75.5h29q21 0 31 1zM868 0h-378h-57q-82 0 -134.5 8t-97.5 36q-74 45 -113.5 121.5t-39.5 175.5t39.5 175.5t113.5 121.5q47 29 101.5 37t139.5 8h48h370v-44h-315v-271h305v-44h-305v-278h323 v-46z"/>
<glyph glyph-name="oe" horiz-adv-x="888" unicode="œ" d="M499 284h292q-7 59 -46.5 95.5t-92.5 36.5q-59 0 -99.5 -34.5t-53.5 -97.5zM85 225q0 -79 53 -133.5t127 -54.5t126.5 54.5t52.5 133.5t-52.5 134t-126.5 55q-75 0 -127.5 -55t-52.5 -134zM469 111q-78 -120 -204 -120q-98 0 -166.5 68t-68.5 167q0 98 68 166.5t167 68.5 q131 0 202 -117q61 115 187 115q87 0 141 -59t54 -157h-352v-6q0 -90 48 -145t124 -55q82 0 172 68v-56q-83 -58 -172 -58q-141 0 -200 120z"/>
<glyph glyph-name="Scaron" horiz-adv-x="458" unicode="Š" d="M364 919l-98 -170h-74l-98 170h45l90 -128l90 128h45zM402 586q-83 56 -157 56q-63 0 -102 -37t-39 -91q0 -51 30.5 -78.5t104.5 -58.5q4 -2 18 -7.5t18.5 -7.5t17 -7t17.5 -8t15 -8t15.5 -9t13.5 -9.5t14 -11.5l12 -12q45 -50 45 -120q0 -81 -56.5 -134t-145.5 -53 q-88 0 -176 61v66q95 -74 175 -74q67 0 106 36.5t39 99.5q0 55 -33 83t-115 62q-90 37 -130 77.5t-40 109.5q0 79 54.5 130t143.5 51q79 0 155 -45v-61z"/>
<glyph glyph-name="scaron" horiz-adv-x="347" unicode="š" d="M309 685l-98 -170h-74l-98 170h45l90 -128l90 128h45zM34 82q68 -45 135 -45q43 0 68 20.5t25 56.5q0 15 -5 27t-11 19.5t-20 15.5t-24 12t-32 12t-35 13q-100 39 -100 124q0 55 40 89.5t103 34.5q58 0 123 -38v-52q-68 44 -126 44q-40 0 -66 -21.5t-26 -55.5 q0 -32 26 -52t86 -41q64 -22 91.5 -49.5t27.5 -76.5q0 -60 -39.5 -94.5t-109.5 -34.5q-69 0 -131 40v52z"/>
<glyph glyph-name="Ydieresis" horiz-adv-x="544" unicode="Ÿ" d="M316 786v80h69v-80h-69zM159 786v80h69v-80h-69zM244 0v366l-265 317h68l225 -270l225 270h68l-265 -317v-366h-56z"/>
<glyph glyph-name="circumflex" horiz-adv-x="500" unicode="ˆ" d="M115 515l98 170h74l98 -170h-45l-90 128l-90 -128h-45z"/>
<glyph glyph-name="tilde" horiz-adv-x="500" unicode="˜" d="M391 643q-26 -89 -93 -89q-14 0 -32 5l-47 15q-12 4 -26 4q-30 0 -45 -35h-39q21 89 95 89q15 0 26 -4l47 -15q14 -5 27 -5q32 0 47 35h40z"/>
<glyph glyph-name="endash" horiz-adv-x="500" unicode="–" d="M0 208v35h500v-35h-500z"/>
<glyph glyph-name="emdash" horiz-adv-x="1000" unicode="—" d="M0 208v35h1000v-35h-1000z"/>
<glyph glyph-name="quoteleft" horiz-adv-x="208" unicode="‘" d="M109 578h28v-100h-65v75q0 51 14 83t51 58v-39q-28 -21 -28 -71v-6z"/>
<glyph glyph-name="quotesinglbase" horiz-adv-x="208" unicode="‚" d="M99 0h-27v100h65v-75q0 -51 -14 -83.5t-51 -58.5v39q27 20 27 71v7z"/>
<glyph glyph-name="quotedblleft" horiz-adv-x="341" unicode="“" d="M109 578h28v-100h-65v75q0 51 14 83t51 58v-39q-28 -21 -28 -71v-6zM242 578h27v-100h-65v75q0 51 14 83t51 58v-39q-27 -20 -27 -70v-7z"/>
<glyph glyph-name="quotedblright" horiz-adv-x="341" unicode="”" d="M99 583h-27v100h65v-75q0 -51 -14 -83.5t-51 -58.5v40q27 20 27 70v7zM231 583h-27v100h65v-75q0 -51 -14 -83.5t-51 -58.5v40q27 20 27 70v7z"/>
<glyph glyph-name="dagger" d="M235 408l-203 -18v71l203 -18l-18 240h71l-19 -240l204 18v-71l-204 18l19 -498h-71z" unicode="†"/>
<glyph glyph-name="daggerdbl" d="M217 296l18 148l-194 -18v71l194 -18l-18 204h71l-19 -204l195 18v-71l-195 18l19 -148l-19 -148l195 19v-72l-195 19l19 -204h-71l18 204l-194 -19v72l194 -19z" unicode="‡"/>
<glyph glyph-name="ellipsis" horiz-adv-x="1000" unicode="…" d="M802 0v100h65v-100h-65zM468 0v100h65v-100h-65zM135 0v100h65v-100h-65z"/>
<glyph glyph-name="perthousand" horiz-adv-x="1294" unicode="‰" d="M935 173q0 -58 39.5 -98t97.5 -40q57 0 97 40t40 98t-40 98.5t-97 40.5t-97 -40.5t-40 -98.5zM887 173q0 77 54 131.5t131 54.5t131 -54.5t54 -131.5t-54 -131t-131 -54t-131 54t-54 131zM506 173q0 -58 39 -98t97 -40q57 0 97 40t40 98t-40 98.5t-97 40.5t-96.5 -40.5 t-39.5 -98.5zM457 173q0 77 54 131.5t131 54.5t131.5 -54.5t54.5 -131.5t-54.5 -131t-131.5 -54t-131 54t-54 131zM177 -12l458 706h53l-459 -706h-52zM86 509q0 -58 39.5 -98.5t96.5 -40.5t97 40.5t40 98.5t-40 98.5t-97 40.5t-96.5 -40.5t-39.5 -98.5zM37 509q0 77 54 131 t131 54t131 -54t54 -131t-54 -131t-131 -54t-131 54t-54 131z"/>
<glyph glyph-name="guilsinglleft" horiz-adv-x="259" unicode="‹" d="M222 378l-122 -153l122 -152h-63l-122 152l122 153h63z"/>
<glyph glyph-name="guilsinglright" horiz-adv-x="259" unicode="›" d="M37 378h62l123 -153l-123 -152h-62l122 152z"/>
<glyph glyph-name="fraction" horiz-adv-x="167" unicode="⁄" d="M281 694h52l-447 -706h-53z"/>
<glyph glyph-name="trademark" horiz-adv-x="833" unicode="™" d="M452 710l85 -215l79 215h50v-259h-29v234l-88 -234h-24l-93 234v-234h-29v259h49zM339 710v-25h-85v-234h-33v234h-87v25h205z"/>
<glyph glyph-name="minus" horiz-adv-x="833" unicode="−" d="M709 318v-39h-585v39h585z"/>
</font>
</defs>
</svg>
