<?xml version="1.0" encoding="UTF-8" standalone="no"?>
<!DOCTYPE svg  PUBLIC '-//W3C//DTD SVG 1.1//EN'  'http://www.w3.org/Graphics/SVG/1.1/DTD/svg11.dtd'>
<svg xmlns="http://www.w3.org/2000/svg">
<defs>
<font id="MyriadWebPro-Bold" horiz-adv-x="1140">
<font-face underline-position="-150" font-weight="700" descent="-400" panose-1="2 11 8 3 3 4 3 2 2 4" units-per-em="2000" unicode-range="U+0020-F112" bbox="-80 -500 2586 1730" x-height="978" underline-thickness="100" font-family="MyriadWebPro" ascent="1600" cap-height="1348"/>
<missing-glyph horiz-adv-x="2000"/>
<glyph glyph-name=".notdef" horiz-adv-x="2000"/>
<glyph glyph-name=".null" horiz-adv-x="0"/>
<glyph glyph-name="nonmarkingreturn" horiz-adv-x="2000"/>
<glyph glyph-name="space" horiz-adv-x="414" unicode=" "/>
<glyph glyph-name="exclam" horiz-adv-x="542" unicode="!" d="M452 162q0 -81 -50.5 -132.5t-131.5 -51.5q-80 0 -131 52t-51 132q0 81 51 132.5t131 51.5t131 -51.5t51 -132.5zM386 442h-230l-44 906h318z"/>
<glyph glyph-name="quotedbl" horiz-adv-x="810" unicode='&quot;' d="M462 1386h276l-46 -544h-182zM72 1386h276l-48 -544h-182z"/>
<glyph glyph-name="numbersign" horiz-adv-x="1130" unicode="#" d="M458 542h186l32 224h-186zM374 0h-182l52 354h-166v188h198l32 224h-170v188h200l50 346h180l-50 -346h188l52 346h180l-50 -346h162v-188h-192l-32 -224h166v-188h-198l-50 -354h-184l52 354h-186z"/>
<glyph glyph-name="dollar" d="M664 -176h-200v190q-211 11 -354 88l62 238q171 -92 346 -92q91 0 144.5 33.5t53.5 90.5q0 56 -50.5 94.5t-169.5 75.5q-197 61 -285.5 150t-88.5 218q0 135 91.5 232t258.5 128v188h200v-176q173 -7 300 -66l-62 -230q-144 72 -300 72q-85 0 -129.5 -30.5t-44.5 -81.5 q0 -47 56.5 -85t191.5 -85q186 -64 266 -150.5t80 -227.5q0 -137 -95.5 -238t-270.5 -132v-204z" unicode="$"/>
<glyph glyph-name="percent" horiz-adv-x="1812" unicode="%" d="M1524 382q0 104 -33 167t-101 63q-65 0 -101.5 -62.5t-36.5 -169.5q0 -105 37 -167.5t101 -62.5q134 0 134 232zM1018 374q0 179 104 293.5t270 114.5t264 -105.5t98 -280.5q0 -194 -109 -305t-263 -111q-157 0 -260.5 108t-103.5 286zM610 -22h-166l752 1342h166z M562 922q0 104 -33 167t-101 63q-65 0 -101.5 -62.5t-36.5 -169.5q0 -102 36 -166t102 -64q134 0 134 232zM56 912q0 179 103 294.5t271 115.5q166 0 264 -106t98 -280q0 -195 -108.5 -305.5t-263.5 -110.5q-157 0 -260.5 108t-103.5 284z"/>
<glyph glyph-name="ampersand" horiz-adv-x="1390" unicode="&amp;" d="M468 600q-110 -79 -110 -188q0 -90 63.5 -150t166.5 -60q116 0 190 68q-98 95 -310 330zM598 850q81 53 115.5 97t34.5 99q0 54 -33 93t-87 39q-57 0 -91.5 -39.5t-34.5 -96.5q0 -94 96 -192zM1378 0h-360q-45 42 -92 98q-156 -120 -380 -120q-226 0 -354 109.5 t-128 272.5q0 254 262 388v8q-104 117 -104 256q0 146 113 252t301 106q164 0 269 -87.5t105 -228.5q0 -214 -270 -346l-2 -6l228 -250q86 134 122 332h276q-60 -334 -230 -516q159 -178 244 -268z"/>
<glyph glyph-name="quotesingle" horiz-adv-x="418" unicode="&apos;" d="M72 1386h274l-46 -544h-182z"/>
<glyph glyph-name="parenleft" horiz-adv-x="642" unicode="(" d="M354 1382h214q-200 -332 -200 -808q0 -465 200 -806h-214q-228 339 -228 806q0 469 228 808z"/>
<glyph glyph-name="parenright" horiz-adv-x="642" unicode=")" d="M288 -232h-214q200 342 200 808q0 465 -200 806h214q228 -335 228 -806q0 -466 -228 -808z"/>
<glyph glyph-name="asterisk" horiz-adv-x="924" unicode="*" d="M578 1370l176 -100l-216 -258v-4l324 64v-204l-326 56v-6l218 -248l-178 -104l-116 310h-4l-114 -310l-174 104l216 250l-2 4l-318 -56v204l316 -64v4l-212 258l178 100l112 -310h4z"/>
<glyph glyph-name="plus" horiz-adv-x="1192" unicode="+" d="M498 1064h198v-436h416v-188h-416v-440h-198v440h-416v188h416v436z"/>
<glyph glyph-name="comma" horiz-adv-x="526" unicode="," d="M208 -218l-208 -18q100 284 148 572l314 20q-106 -329 -254 -574z"/>
<glyph glyph-name="hyphen" horiz-adv-x="658" unicode="-" d="M60 624h538v-204h-538v204z"/>
<glyph glyph-name="period" horiz-adv-x="526" unicode="." d="M466 164q0 -82 -51.5 -134t-132.5 -52q-80 0 -131 52.5t-51 133.5t52 133.5t132 52.5q81 0 131.5 -52t50.5 -134z"/>
<glyph glyph-name="slash" horiz-adv-x="674" unicode="/" d="M246 -80h-204l422 1450h206z"/>
<glyph glyph-name="zero" d="M374 650q0 -216 50.5 -330t143.5 -114q94 0 144 113t50 331q0 440 -192 440q-93 0 -144.5 -113.5t-51.5 -326.5zM1074 654q0 -317 -132.5 -496.5t-373.5 -179.5q-238 0 -370 180t-132 488q0 299 130 487.5t378 188.5q239 0 369.5 -180t130.5 -488z" unicode="0"/>
<glyph glyph-name="one" d="M484 0v1026h-4l-250 -118l-52 232l350 160h254v-1300h-298z" unicode="1"/>
<glyph glyph-name="two" d="M1036 0h-946v184q438 382 524 495t86 205q0 89 -56.5 139.5t-161.5 50.5q-142 0 -288 -112l-90 220q188 140 440 140q216 0 341 -112.5t125 -299.5q0 -132 -81.5 -270.5t-394.5 -383.5v-4h502v-252z" unicode="2"/>
<glyph glyph-name="three" d="M80 74l64 230q165 -82 316 -82q114 0 178 46.5t64 123.5q0 85 -74.5 134.5t-189.5 49.5h-136v222h130q97 0 164.5 39.5t67.5 108.5q0 61 -51.5 97.5t-144.5 36.5q-145 0 -284 -82l-66 222q172 102 418 102q202 0 322 -92t120 -234q0 -217 -242 -302v-4 q131 -23 209.5 -109.5t78.5 -204.5q0 -176 -148 -287t-394 -111q-244 0 -402 96z" unicode="3"/>
<glyph glyph-name="four" d="M340 540h300v290q0 77 8 246h-6q-104 -213 -124 -246zM934 0h-294v312h-590v198l498 790h386v-760h158v-228h-158v-312z" unicode="4"/>
<glyph glyph-name="five" d="M978 1300v-252h-522l-28 -194q59 4 90 4q233 0 374.5 -107.5t141.5 -316.5q0 -190 -155.5 -323t-414.5 -133q-218 0 -376 76l58 232q141 -68 304 -68q113 0 189.5 52.5t76.5 143.5q0 216 -376 216q-75 0 -184 -12l86 682h736z" unicode="5"/>
<glyph glyph-name="six" d="M368 474q0 -109 56.5 -188.5t163.5 -79.5q81 0 131.5 62.5t50.5 161.5q0 100 -54 162t-148 62q-85 0 -142.5 -57t-57.5 -123zM938 1318v-236q-95 0 -158 -5t-139.5 -30.5t-130 -68t-86 -95t-46.5 -113.5h6q107 104 286 104q178 0 296 -117t118 -309q0 -198 -140.5 -334 t-351.5 -136q-247 0 -388.5 158.5t-141.5 411.5q0 166 53.5 308.5t146.5 238t211.5 148.5t264.5 69q55 6 200 6z" unicode="6"/>
<glyph glyph-name="seven" d="M100 1300h944v-192l-550 -1108h-332l552 1044v4h-614v252z" unicode="7"/>
<glyph glyph-name="eight" d="M386 372q0 -72 53 -126t135 -54q83 0 134.5 45t51.5 115q0 55 -26 98t-92 76.5t-94 33.5q-16 0 -62 -23t-73 -66.5t-27 -98.5zM598 790q61 18 98.5 63.5t37.5 100.5q0 69 -43 114.5t-119 45.5t-120 -41.5t-44 -106.5q0 -119 190 -176zM304 670q-192 98 -192 284 q0 164 132.5 266t333.5 102q210 0 327 -97.5t117 -236.5q0 -190 -192 -286v-6q115 -42 179.5 -126.5t64.5 -195.5q0 -176 -140 -286t-372 -110q-230 0 -362 105.5t-132 256.5q0 223 236 324v6z" unicode="8"/>
<glyph glyph-name="nine" d="M754 822q0 123 -51.5 198.5t-146.5 75.5q-81 0 -133.5 -63t-52.5 -161q0 -90 51.5 -148t140.5 -58q61 0 106 23.5t65.5 53.5t20.5 79zM184 -18v238q28 -3 58 -3q428 0 512 323l-4 2q-93 -96 -272 -96q-178 0 -297 113.5t-119 294.5q0 195 143.5 331.5t358.5 136.5 q237 0 371.5 -155t134.5 -407q0 -184 -51.5 -326.5t-143 -237t-213.5 -145t-270 -64.5q-49 -5 -208 -5z" unicode="9"/>
<glyph glyph-name="colon" horiz-adv-x="526" unicode=":" d="M462 162q0 -81 -50.5 -132.5t-131.5 -51.5q-80 0 -131 52t-51 132q0 81 51 133.5t131 52.5q81 0 131.5 -52t50.5 -134zM464 806q0 -80 -50 -132t-132 -52q-80 0 -131 52t-51 132q0 81 50.5 133.5t131.5 52.5t131.5 -52t50.5 -134z"/>
<glyph glyph-name="semicolon" horiz-adv-x="526" unicode=";" d="M208 -220l-206 -18q100 284 148 572l312 20q-106 -329 -254 -574zM476 806q0 -80 -50 -132t-132 -52q-80 0 -131 52t-51 132q0 81 51 133.5t131 52.5q81 0 131.5 -52t50.5 -134z"/>
<glyph glyph-name="less" horiz-adv-x="1192" unicode="&lt;" d="M114 444v176l962 444v-214l-730 -316v-4l730 -316v-214z"/>
<glyph glyph-name="equal" horiz-adv-x="1192" unicode="=" d="M1112 232h-1032v188h1032v-188zM1112 650h-1032v188h1032v-188z"/>
<glyph glyph-name="greater" horiz-adv-x="1192" unicode="&gt;" d="M1078 624v-184l-962 -440v212l740 318v4l-740 318v212z"/>
<glyph glyph-name="question" horiz-adv-x="916" unicode="?" d="M598 162q0 -81 -50.5 -132.5t-131.5 -51.5q-80 0 -131 52t-51 132q0 81 51 132.5t131 51.5t131 -51.5t51 -132.5zM558 440h-270q-2 61 -2 69q0 159 118 293q77 88 98.5 131t21.5 77q0 118 -146 118q-116 0 -208 -62l-70 220q149 84 346 84q183 0 286.5 -86.5 t103.5 -225.5q0 -70 -36.5 -147.5t-137.5 -186.5q-104 -109 -104 -250v-34z"/>
<glyph glyph-name="at" horiz-adv-x="1574" unicode="@" d="M908 690l26 182q-32 8 -62 8q-99 0 -169.5 -81t-70.5 -193q0 -126 102 -126q57 0 109.5 61.5t64.5 148.5zM1080 168l36 -120q-159 -70 -372 -70q-268 0 -453 177.5t-185 456.5q0 206 98 382.5t272.5 276t389.5 99.5q268 0 444 -165.5t176 -420.5q0 -209 -110.5 -338.5 t-277.5 -129.5q-154 0 -174 152h-4q-100 -152 -264 -152q-102 0 -166 72t-64 192q0 190 132 326t344 136q148 0 242 -50l-58 -371q-8 -48 -8 -81q0 -88 63 -88q74 0 132.5 90t58.5 240q0 206 -132 334t-356 128q-244 0 -412 -171t-168 -441q0 -246 144.5 -386t377.5 -140 q167 0 294 62z"/>
<glyph glyph-name="A" horiz-adv-x="1358" unicode="A" d="M506 580h310q-122 395 -158 542h-4l-64 -256zM864 352h-404l-100 -352h-322l426 1348h408l438 -1348h-336z"/>
<glyph glyph-name="B" horiz-adv-x="1236" unicode="B" d="M440 596v-376q25 -6 124 -6q127 0 198.5 50t71.5 144q0 92 -74 140t-210 48h-110zM440 1126v-310h104q123 0 189.5 44t66.5 122q0 154 -224 154q-93 0 -136 -10zM134 6v1324q163 30 404 30q310 0 442 -95t132 -247q0 -95 -57.5 -170.5t-166.5 -115.5v-4 q128 -34 200 -122.5t72 -209.5q0 -177 -148 -293.5t-540 -116.5q-196 0 -338 20z"/>
<glyph glyph-name="C" horiz-adv-x="1238" unicode="C" d="M1116 280l48 -240q-138 -62 -362 -62q-341 0 -535.5 185.5t-194.5 492.5q0 324 212 519t546 195q225 0 350 -62l-64 -244q-125 54 -272 54q-203 0 -324.5 -118t-121.5 -326q0 -203 119.5 -321.5t328.5 -118.5q151 0 270 46z"/>
<glyph glyph-name="D" horiz-adv-x="1440" unicode="D" d="M444 1110v-878q26 -6 112 -6q231 0 357.5 121.5t126.5 348.5q0 208 -115.5 317t-332.5 109q-91 0 -148 -12zM134 6v1324q200 30 428 30q431 0 618.5 -180.5t187.5 -471.5q0 -344 -213.5 -533t-658.5 -189q-206 0 -362 20z"/>
<glyph glyph-name="E" horiz-adv-x="1100" unicode="E" d="M962 818v-250h-518v-316h578v-252h-888v1348h860v-252h-550v-278h518z"/>
<glyph glyph-name="F" horiz-adv-x="1086" unicode="F" d="M134 0v1348h852v-252h-542v-306h506v-250h-506v-540h-310z"/>
<glyph glyph-name="G" horiz-adv-x="1412" unicode="G" d="M1304 774v-710q-245 -78 -470 -78q-380 0 -571 187.5t-191 484.5q0 321 218.5 512.5t575.5 191.5q244 0 392 -68l-66 -244q-137 60 -332 60q-211 0 -336.5 -115.5t-125.5 -318.5q0 -201 122.5 -321.5t323.5 -120.5q114 0 160 20v280h-218v240h518z"/>
<glyph glyph-name="H" horiz-adv-x="1418" unicode="H" d="M134 1348h310v-518h530v518h310v-1348h-310v562h-530v-562h-310v1348z"/>
<glyph glyph-name="I" horiz-adv-x="578" unicode="I" d="M134 1348h310v-1348h-310v1348z"/>
<glyph glyph-name="J" horiz-adv-x="848" unicode="J" d="M414 508v840h310v-846q0 -265 -120.5 -394.5t-371.5 -129.5q-131 0 -234 34l36 246q88 -24 164 -24q117 0 166.5 66.5t49.5 207.5z"/>
<glyph glyph-name="K" horiz-adv-x="1264" unicode="K" d="M134 0v1348h306v-594q62 91 112 161l308 433h384l-462 -572l488 -776h-362l-348 584l-120 -144v-440h-306z"/>
<glyph glyph-name="L" horiz-adv-x="1052" unicode="L" d="M134 0v1348h310v-1088h558v-260h-868z"/>
<glyph glyph-name="M" horiz-adv-x="1742" unicode="M" d="M1330 0q-32 802 -32 1088h-6q-49 -215 -328 -1066h-242q-167 587 -200 720t-76 346h-4q-13 -404 -22 -582l-26 -506h-288l86 1348h420q155 -516 186.5 -638.5t63.5 -291.5h8q74 313 126 469l154 461h412l72 -1348h-304z"/>
<glyph glyph-name="N" horiz-adv-x="1422" unicode="N" d="M420 0h-286v1348h368l325 -551q93 -161 195 -409h4q-24 212 -24 556v404h286v-1348h-328q-343 595 -409 717.5t-137 286.5h-8q14 -255 14 -586v-418z"/>
<glyph glyph-name="O" horiz-adv-x="1490" unicode="O" d="M398 672q0 -198 95 -324t249 -126q158 0 252 125t94 329q0 196 -94.5 323t-249.5 127q-156 0 -251 -127.5t-95 -326.5zM1418 686q0 -321 -188.5 -514.5t-495.5 -193.5q-298 0 -480 192.5t-182 493.5q0 308 190 507t490 199q302 0 484 -192t182 -492z"/>
<glyph glyph-name="P" horiz-adv-x="1190" unicode="P" d="M440 1116v-398q33 -8 108 -8q126 0 199 58t73 160q0 94 -65 146t-183 52q-94 0 -132 -10zM134 0v1332q191 28 428 28q296 0 430 -120t134 -304q0 -225 -153.5 -344.5t-422.5 -119.5q-53 0 -110 8v-480h-306z"/>
<glyph glyph-name="Q" horiz-adv-x="1490" unicode="Q" d="M400 670q0 -198 95 -323t249 -125q157 0 251.5 125t94.5 329q0 196 -94 323t-248 127q-157 0 -252.5 -128t-95.5 -328zM1418 8l-86 -240q-247 68 -556 190q-42 17 -96 20q-264 19 -436 201.5t-172 480.5q0 311 188 510.5t496 199.5q299 0 480.5 -192.5t181.5 -489.5 q0 -206 -89.5 -367.5t-242.5 -230.5v-8q122 -35 332 -74z"/>
<glyph glyph-name="R" horiz-adv-x="1216" unicode="R" d="M440 1122v-370h128q116 0 183 52.5t67 141.5t-60.5 137.5t-171.5 48.5q-109 0 -146 -10zM134 0v1330q170 30 418 30q306 0 440 -101t134 -289q0 -112 -67.5 -202.5t-174.5 -127.5v-8q126 -47 182 -248q103 -362 112 -384h-316q-40 75 -96 314q-28 120 -76 168t-154 48 h-96v-530h-306z"/>
<glyph glyph-name="S" horiz-adv-x="1114" unicode="S" d="M84 64l64 254q173 -88 352 -88q103 0 160.5 39t57.5 107q0 61 -52 102t-180 84q-386 128 -386 402q0 177 142 291.5t378 114.5q206 0 360 -70l-70 -246q-141 66 -294 66q-94 0 -147 -36t-53 -94q0 -53 44.5 -90.5t213.5 -97.5q187 -66 273.5 -163.5t86.5 -242.5 q0 -186 -146 -302t-408 -116q-224 0 -396 86z"/>
<glyph glyph-name="T" horiz-adv-x="1132" unicode="T" d="M408 0v1090h-378v258h1072v-258h-384v-1090h-310z"/>
<glyph glyph-name="U" horiz-adv-x="1406" unicode="U" d="M134 1348h310v-764q0 -176 66 -269t190 -93q262 0 262 362v764h310v-748q0 -305 -149 -463.5t-433 -158.5q-556 0 -556 626v744z"/>
<glyph glyph-name="V" horiz-adv-x="1316" unicode="V" d="M832 0h-364l-448 1348h340q281 -934 298 -1052h4q48 216 133 487l179 565h328z"/>
<glyph glyph-name="W" horiz-adv-x="1824" unicode="W" d="M702 0h-342l-330 1348h332q140 -718 190 -1028h4q26 194 206 1028h338q159 -818 182 -1020h4q16 153 196 1020h316l-360 -1348h-336q-134 663 -150.5 755.5t-33.5 252.5h-4q-36 -226 -78 -412z"/>
<glyph glyph-name="X" horiz-adv-x="1274" unicode="X" d="M1236 0h-362q-243 471 -250 486h-4q-22 -58 -75 -168l-151 -318h-358l406 682l-392 666h360q180 -357 228 -470h4q43 120 216 470h358l-396 -656z"/>
<glyph glyph-name="Y" horiz-adv-x="1252" unicode="Y" d="M774 0h-310v556l-440 792h356q245 -557 254 -580q46 124 250 580h352l-462 -780v-568z"/>
<glyph glyph-name="Z" horiz-adv-x="1198" unicode="Z" d="M50 0v166l668 920v6h-608v256h1014v-174l-654 -912v-6h666v-256h-1086z"/>
<glyph glyph-name="bracketleft" horiz-adv-x="642" unicode="[" d="M554 -224h-414v1594h414v-168h-192v-1258h192v-168z"/>
<glyph glyph-name="backslash" horiz-adv-x="698" unicode="\" d="M658 -80h-206l-422 1450h206z"/>
<glyph glyph-name="bracketright" horiz-adv-x="642" unicode="]" d="M88 1370h414v-1594h-414v168h192v1258h-192v168z"/>
<glyph glyph-name="asciicircum" horiz-adv-x="1192" unicode="^" d="M1108 354h-220l-292 712l-296 -712h-216l418 946h188z"/>
<glyph glyph-name="underscore" horiz-adv-x="1000" unicode="_" d="M0 -150h1000v-100h-1000v100z"/>
<glyph glyph-name="grave" horiz-adv-x="600" unicode="`" d="M4 1402h286l176 -306h-212z"/>
<glyph glyph-name="a" horiz-adv-x="1082" unicode="a" d="M660 362v100q-294 0 -294 -152q0 -55 33 -85.5t91 -30.5q63 0 116.5 44t53.5 124zM958 578v-340q0 -148 16 -238h-278l-18 98h-8q-101 -120 -286 -120q-144 0 -234 87.5t-90 212.5q0 182 152.5 279t437.5 97v12q0 122 -184 122q-150 0 -278 -74l-58 196q163 90 390 90 q216 0 327 -109t111 -313z"/>
<glyph glyph-name="b" horiz-adv-x="1230" unicode="b" d="M434 552v-128q0 -99 61 -151.5t135 -52.5q102 0 161 73t59 201q0 122 -58.5 196t-161.5 74q-80 0 -138 -59t-58 -153zM124 294v1130h310v-566h4q102 142 308 142q183 0 300.5 -136.5t117.5 -357.5q0 -151 -59 -272.5t-167.5 -188.5t-235.5 -67q-208 0 -306 160h-4 l-14 -138h-262q8 132 8 294z"/>
<glyph glyph-name="c" horiz-adv-x="932" unicode="c" d="M844 252l38 -226q-113 -48 -286 -48q-242 0 -386 136.5t-144 365.5t155 374.5t419 145.5q135 0 242 -40l-50 -228q-76 32 -178 32q-121 0 -195.5 -76t-74.5 -196q0 -125 77.5 -198.5t198.5 -73.5q99 0 184 32z"/>
<glyph glyph-name="d" horiz-adv-x="1226" unicode="d" d="M792 444v114q0 90 -53 148t-137 58q-102 0 -161 -75.5t-59 -198.5q0 -122 59 -194t159 -72q72 0 132 52.5t60 167.5zM792 1424h310v-1132q0 -160 8 -292h-276l-12 148h-4q-102 -170 -320 -170q-181 0 -305.5 140.5t-124.5 361.5q0 235 131.5 377.5t320.5 142.5 q188 0 268 -112h4v536z"/>
<glyph glyph-name="e" horiz-adv-x="1080" unicode="e" d="M358 602h376q0 69 -40.5 131.5t-137.5 62.5q-80 0 -132.5 -53.5t-65.5 -140.5zM1010 390h-650q8 -87 87.5 -135.5t198.5 -48.5q152 0 280 42l40 -206q-152 -64 -364 -64q-251 0 -393.5 134t-142.5 366q0 213 137 367.5t369 154.5q214 0 332 -138t118 -354q0 -71 -12 -118 z"/>
<glyph glyph-name="f" horiz-adv-x="696" unicode="f" d="M468 0h-310v750h-128v228h128v36q0 123 49 227t144.5 154.5t206.5 50.5q80 0 162 -20l-10 -238q-45 14 -100 14q-69 0 -106.5 -46.5t-37.5 -127.5v-50h198v-228h-196v-750z"/>
<glyph glyph-name="g" horiz-adv-x="1202" unicode="g" d="M766 444v130q0 85 -49 139.5t-129 54.5q-89 0 -147.5 -75t-58.5 -201q0 -111 55 -184.5t151 -73.5q64 0 121 46.5t57 163.5zM1076 688v-542q0 -286 -133 -426t-425 -140q-219 0 -364 78l62 234q137 -76 294 -76q123 0 192.5 66.5t69.5 191.5v64h-4q-97 -130 -274 -130 q-185 0 -305.5 133t-120.5 343q0 226 132 371t324 145q190 0 278 -140h4l10 118h268q-8 -116 -8 -290z"/>
<glyph glyph-name="h" horiz-adv-x="1200" unicode="h" d="M126 0v1424h310v-566h4q45 62 121.5 102t162.5 40q163 0 258.5 -113t95.5 -321v-566h-310v530q0 220 -164 220q-68 0 -118 -46.5t-50 -127.5v-576h-310z"/>
<glyph glyph-name="i" horiz-adv-x="560" unicode="i" d="M454 1268q0 -70 -48 -116t-126 -46t-126 46t-48 116t48.5 116t125.5 46t125.5 -46t48.5 -116zM436 0h-310v978h310v-978z"/>
<glyph glyph-name="j" horiz-adv-x="598" unicode="j" d="M496 1268q0 -69 -47.5 -115.5t-126.5 -46.5q-78 0 -126 46t-48 116t48.5 116t125.5 46q78 0 126 -45.5t48 -116.5zM-50 -432l-30 240q90 6 148.5 37.5t79 106.5t20.5 248v778h310v-854q0 -314 -141.5 -435t-386.5 -121z"/>
<glyph glyph-name="k" horiz-adv-x="1116" unicode="k" d="M434 1424v-858h4q26 52 280 412h374l-364 -396l418 -582h-384l-248 402l-80 -98v-304h-310v1424h310z"/>
<glyph glyph-name="l" horiz-adv-x="560" unicode="l" d="M126 0v1424h310v-1424h-310z"/>
<glyph glyph-name="m" horiz-adv-x="1762" unicode="m" d="M126 0v664q0 145 -8 314h260l14 -136h6q104 158 302 158q95 0 168 -45t106 -127h4q123 172 322 172q155 0 246.5 -112t91.5 -318v-570h-300v526q0 226 -150 226q-67 0 -111.5 -51.5t-44.5 -134.5v-566h-300v540q0 102 -38 157t-108 55q-65 0 -112.5 -52t-47.5 -136v-564 h-300z"/>
<glyph glyph-name="n" horiz-adv-x="1200" unicode="n" d="M126 0v664q0 145 -8 314h268l14 -138h8q109 160 310 160q165 0 262.5 -111.5t97.5 -314.5v-574h-310v534q0 218 -162 218q-66 0 -118 -50t-52 -142v-560h-310z"/>
<glyph glyph-name="o" horiz-adv-x="1186" unicode="o" d="M384 488q0 -130 56.5 -210t151.5 -80q93 0 149.5 79t56.5 213q0 128 -54 209t-150 81q-99 0 -154.5 -81.5t-55.5 -210.5zM1120 500q0 -240 -151 -381t-379 -141q-230 0 -377 138.5t-147 365.5q0 233 148 375.5t392 142.5q228 0 371 -140t143 -360z"/>
<glyph glyph-name="p" horiz-adv-x="1230" unicode="p" d="M434 546v-120q0 -63 21.5 -106.5t68.5 -74.5t104 -31q101 0 160.5 74t59.5 200q0 123 -57.5 197.5t-156.5 74.5q-81 0 -140.5 -61t-59.5 -153zM124 -396v1044q0 150 -8 330h270l14 -140q121 162 344 162q173 0 295.5 -137.5t122.5 -358.5q0 -242 -134 -384t-326 -142 q-85 0 -156.5 30.5t-107.5 83.5h-4v-488h-310z"/>
<glyph glyph-name="q" horiz-adv-x="1226" unicode="q" d="M792 430v132q0 92 -57.5 146t-132.5 54q-102 0 -161 -75t-59 -199q0 -122 58.5 -195t157.5 -73q82 0 138 57.5t56 152.5zM792 -396v524h-4q-99 -150 -302 -150q-173 0 -295.5 138.5t-122.5 359.5q0 157 59 276t163.5 183.5t221.5 64.5q196 0 286 -138l8 116h302 q-6 -239 -6 -292v-1082h-310z"/>
<glyph glyph-name="r" horiz-adv-x="780" unicode="r" d="M126 0v652q0 220 -8 326h266l10 -186h8q36 101 111.5 154.5t160.5 53.5q47 0 66 -6v-290q-39 10 -84 10q-86 0 -153 -48.5t-67 -171.5v-494h-310z"/>
<glyph glyph-name="s" horiz-adv-x="894" unicode="s" d="M68 48l56 220q54 -31 132.5 -52.5t139.5 -21.5q134 0 134 80q0 40 -32.5 62t-115.5 48q-288 89 -288 292q0 141 112.5 232.5t295.5 91.5q160 0 284 -58l-54 -212q-116 56 -220 56q-120 0 -120 -78q0 -35 36.5 -59t127.5 -53q140 -44 206 -116.5t66 -183.5 q0 -145 -114 -231.5t-318 -86.5q-188 0 -328 70z"/>
<glyph glyph-name="t" horiz-adv-x="746" unicode="t" d="M166 1162l302 82v-266h222v-228h-222v-344q0 -97 28.5 -136.5t93.5 -39.5q60 0 94 10l2 -234q-73 -28 -202 -28q-140 0 -229 83.5t-89 294.5v394h-132v228h132v184z"/>
<glyph glyph-name="u" horiz-adv-x="1198" unicode="u" d="M1072 978v-662q0 -157 8 -316h-268l-14 142h-8q-104 -164 -314 -164q-168 0 -261 109.5t-93 316.5v574h310v-522q0 -230 160 -230q67 0 118.5 49t51.5 125v578h310z"/>
<glyph glyph-name="v" horiz-adv-x="1092" unicode="v" d="M20 978h336q193 -632 196 -690h8q18 100 52 221l134 469h328l-376 -978h-312z"/>
<glyph glyph-name="w" horiz-adv-x="1552" unicode="w" d="M24 978h314q116 -558 140 -722h4q16 102 54 247l124 475h246q155 -595 174 -722h4q15 154 144 722h302l-304 -978h-292q-105 383 -120.5 449t-39.5 199h-4q-23 -159 -59 -283l-105 -365h-292z"/>
<glyph glyph-name="x" horiz-adv-x="1068" unicode="x" d="M14 978h346q140 -220 184 -306h6q28 62 168 306h338l-334 -464l338 -514h-352q-147 249 -180 324h-6q-26 -58 -174 -324h-342l344 500z"/>
<glyph glyph-name="y" horiz-adv-x="1076" unicode="y" d="M14 978h344q189 -600 202 -662h6l172 662h332l-226 -619q-91 -250 -165 -396.5t-147.5 -225t-164.5 -124t-187 -55.5l-64 260q131 26 206.5 102t75.5 112q0 13 -16 52z"/>
<glyph glyph-name="z" horiz-adv-x="964" unicode="z" d="M44 0v176q323 387 357 425.5t121 132.5h-444v244h826v-184q-329 -396 -367 -440.5t-103 -105.5v-4h486v-244h-876z"/>
<glyph glyph-name="braceleft" horiz-adv-x="642" unicode="{" d="M64 498v152q69 2 111.5 32.5t42.5 107.5q0 66 -10 156q-12 108 -12 158q0 266 304 266h74v-170h-36q-124 0 -124 -142l10 -112q10 -100 10 -140q0 -105 -40 -158t-132 -72v-4q91 -17 131.5 -70.5t40.5 -159.5q0 -37 -10 -142q-10 -100 -10 -110q0 -144 124 -144h36v-170 h-74q-304 0 -304 272q0 48 12 156q10 90 10 154q0 133 -154 140z"/>
<glyph glyph-name="bar" horiz-adv-x="580" unicode="|" d="M184 1500h214v-2000h-214v2000z"/>
<glyph glyph-name="braceright" horiz-adv-x="642" unicode="}" d="M578 650l-2 -152q-154 -7 -154 -140q0 -28 14 -154q10 -90 10 -156q0 -272 -304 -272h-74v170h36q124 0 124 144q0 30 -12 110q-10 70 -10 142q0 106 40.5 159.5t131.5 70.5v4q-92 19 -132 72t-40 158q0 60 12 140q10 70 10 112q0 142 -124 142h-36v170h74 q304 0 304 -266q0 -50 -12 -158t-12 -156q0 -59 30.5 -97.5t125.5 -42.5z"/>
<glyph glyph-name="asciitilde" horiz-adv-x="1192" unicode="~" d="M274 382h-192q0 378 280 378q53 0 107.5 -15t172.5 -79q147 -80 194 -80q72 0 80 162h194q0 -119 -16.5 -184.5t-54 -111t-88 -65t-111.5 -19.5q-56 0 -115 18t-167 78q-147 82 -190 82q-81 0 -94 -164z"/>
<glyph glyph-name="uni00A0" horiz-adv-x="414" unicode=" "/>
<glyph glyph-name="exclamdown" horiz-adv-x="542" unicode="¡" d="M432 -382h-318l44 904h230zM90 804q0 80 51 132t131 52t131 -52t51 -132q0 -82 -50 -133t-132 -51q-80 0 -131 51.5t-51 132.5z"/>
<glyph glyph-name="cent" d="M774 -24h-200v196q-199 29 -308.5 158t-109.5 326q0 187 110 325.5t308 178.5v188h200v-180q98 -4 196 -40l-50 -226q-76 36 -182 36q-121 0 -193.5 -73.5t-72.5 -194.5q0 -126 74.5 -198t193.5 -72q109 0 202 36l38 -222q-82 -38 -206 -48v-190z" unicode="¢"/>
<glyph glyph-name="sterling" d="M1042 0h-936v162q101 44 164.5 125t63.5 171q0 52 -6 76h-198v212h162q-14 84 -14 156q0 188 127.5 304t332.5 116q152 0 244 -50l-50 -232q-70 38 -176 38q-94 0 -143 -50t-49 -140q0 -58 18 -142h284v-212h-256q0 -87 -22 -149.5t-94 -128.5v-4h548v-252z" unicode="£"/>
<glyph glyph-name="currency" d="M764 672q0 98 -55.5 162t-138.5 64t-138.5 -63.5t-55.5 -164.5q0 -106 58.5 -169t135.5 -63q80 0 137 62.5t57 171.5zM334 1030q97 74 236 74q141 0 238 -70l156 168l136 -140l-176 -156q66 -104 66 -232q0 -142 -72 -242l170 -162l-134 -136l-148 178q-99 -80 -238 -80 q-144 0 -236 76l-146 -174l-134 136l168 158q-74 103 -74 240q0 134 72 238l-176 156l136 140z" unicode="¤"/>
<glyph glyph-name="yen" d="M704 0h-290v318h-318v144h318v128h-318v144h244l-338 566h336l145 -316q34 -75 85 -218h4q12 29 38.5 100t50.5 122l147 312h328l-354 -566h244v-144h-322v-128h322v-144h-322v-318z" unicode="¥"/>
<glyph glyph-name="brokenbar" horiz-adv-x="580" unicode="¦" d="M184 348h214v-700h-214v700zM184 1348h214v-700h-214v700z"/>
<glyph glyph-name="section" horiz-adv-x="1152" unicode="§" d="M406 788q-72 -36 -72 -104q0 -95 178 -156q225 -77 244 -86q60 38 60 104q0 40 -27 73t-70.5 52.5t-157.5 58.5q-122 43 -155 58zM954 1308l-48 -188q-120 58 -274 58q-87 0 -135.5 -26t-48.5 -70q0 -43 52.5 -75t167.5 -65q230 -68 311 -150.5t81 -203.5 q0 -151 -150 -242q92 -74 92 -188q0 -155 -129 -238.5t-325 -83.5q-239 0 -386 92l60 186q156 -86 312 -86q87 0 136.5 27t49.5 75t-46.5 80t-167.5 68q-246 75 -330 156.5t-84 193.5q0 70 44.5 138t125.5 106q-82 72 -82 184q0 144 123 228t323 84q188 0 328 -60z"/>
<glyph glyph-name="dieresis" horiz-adv-x="600" unicode="¨" d="M644 1228q0 -57 -38.5 -97.5t-97.5 -40.5q-58 0 -98 40.5t-40 97.5q0 59 39.5 98.5t98.5 39.5q58 0 97 -39t39 -99zM228 1228q0 -57 -38.5 -97.5t-95.5 -40.5q-59 0 -99.5 41t-40.5 97q0 58 41 98t101 40q56 0 94 -39.5t38 -98.5z"/>
<glyph glyph-name="copyright" horiz-adv-x="1354" unicode="©" d="M948 984l-30 -108q-80 46 -190 46q-117 0 -182.5 -65.5t-65.5 -182.5q0 -109 69 -179.5t177 -70.5q125 0 202 50l30 -104q-99 -64 -248 -64q-169 0 -269.5 101t-100.5 261q0 162 113.5 267t272.5 105q68 0 133.5 -16.5t88.5 -39.5zM1160 678q0 209 -141 356.5t-339 147.5 q-200 0 -341 -147.5t-141 -358.5q0 -209 141 -355.5t341 -146.5q199 0 339.5 147t140.5 357zM64 680q0 254 180.5 435t435.5 181q253 0 431.5 -180.5t178.5 -435.5q0 -258 -177.5 -439t-432.5 -181t-435.5 181.5t-180.5 438.5z"/>
<glyph glyph-name="ordfeminine" horiz-adv-x="774" unicode="ª" d="M480 768v64q-202 0 -202 -96q0 -33 25 -54.5t63 -21.5q45 0 79.5 30t34.5 78zM700 534h-194l-14 66h-4q-80 -76 -204 -76q-98 0 -158 55.5t-60 140.5q0 112 108.5 172t297.5 60v12q0 25 -26.5 50.5t-97.5 25.5q-104 0 -192 -52l-42 128q119 66 274 66q146 0 223 -74 t77 -204v-214q0 -98 12 -156z"/>
<glyph glyph-name="guillemotleft" horiz-adv-x="948" unicode="«" d="M900 888l-242 -382l242 -384h-214l-234 384l234 382h214zM504 888l-242 -382l242 -384h-214l-234 384l234 382h214z"/>
<glyph glyph-name="logicalnot" horiz-adv-x="1192" unicode="¬" d="M80 844h1032v-632h-198v444h-834v188z"/>
<glyph glyph-name="uni00AD" horiz-adv-x="658" unicode="­" d="M60 624h538v-204h-538v204z"/>
<glyph glyph-name="registered" horiz-adv-x="1020" unicode="®" d="M434 1090v-144h50q110 0 110 72q0 74 -102 74q-46 0 -58 -2zM434 864v-206h-106v500q91 14 160 14q112 0 164 -34t52 -114q0 -88 -96 -116v-4q68 -13 80 -122q11 -85 26 -124h-108q-13 17 -30 130q-11 76 -94 76h-48zM854 918q0 150 -100.5 256t-241.5 106t-241.5 -106 t-100.5 -256t100 -255t242 -105t242 105t100 255zM62 920q0 186 132 318t318 132q185 0 315.5 -132t130.5 -318q0 -189 -130 -320.5t-316 -131.5t-318 132.5t-132 319.5z"/>
<glyph glyph-name="macron" horiz-adv-x="600" unicode="¯" d="M46 1322h510v-158h-510v158z"/>
<glyph glyph-name="degree" horiz-adv-x="728" unicode="°" d="M512 1070q0 66 -40 111t-106 45q-63 0 -103.5 -46t-40.5 -112q0 -64 41.5 -108t102.5 -44q64 0 105 43.5t41 110.5zM54 1068q0 125 90.5 213.5t221.5 88.5q132 0 221 -87.5t89 -210.5q0 -126 -92 -213t-220 -87q-132 0 -221 86.5t-89 209.5z"/>
<glyph glyph-name="plusminus" horiz-adv-x="1192" unicode="±" d="M82 188h1030v-188h-1030v188zM498 1160h198v-346h416v-188h-416v-354h-198v354h-416v188h416v346z"/>
<glyph glyph-name="two.superior" horiz-adv-x="768" unicode="²" d="M68 534v112q285 242 325.5 297t40.5 99q0 43 -31.5 69.5t-88.5 26.5q-92 0 -176 -56l-64 152q128 88 300 88q143 0 226.5 -67t83.5 -175q0 -70 -41.5 -142t-238.5 -226v-4h296v-174h-632z"/>
<glyph glyph-name="three.superior" horiz-adv-x="762" unicode="³" d="M134 1110l-46 146q116 66 292 66q139 0 217.5 -54.5t78.5 -143.5q0 -125 -170 -176v-4q93 -11 146.5 -61t53.5 -123q0 -106 -100.5 -171t-267.5 -65q-172 0 -280 58l46 158q102 -54 204 -54q65 0 105.5 25t40.5 63q0 45 -50 71.5t-126 26.5h-64v138h60q67 0 111.5 21 t44.5 59q0 70 -106 70q-95 0 -190 -50z"/>
<glyph glyph-name="acute" horiz-adv-x="600" unicode="´" d="M320 1402h286l-250 -306h-212z"/>
<glyph glyph-name="mu" horiz-adv-x="1198" unicode="µ" d="M1072 978v-662q0 -157 8 -316h-268l-14 146h-8q-96 -164 -256 -164q-103 0 -154 66h-6l24 -444h-276v1374h310v-520q0 -228 162 -228q75 0 121.5 55.5t46.5 86.5v606h310z"/>
<glyph glyph-name="paragraph" horiz-adv-x="1112" unicode="¶" d="M618 -94h-198v622h-12q-117 0 -229.5 105t-112.5 271q0 146 67.5 248t201.5 154t333 52q193 0 294 -22v-1430h-198v1258h-146v-1258z"/>
<glyph glyph-name="periodcentered" horiz-adv-x="526" unicode="·" d="M446 532q0 -82 -51.5 -134t-132.5 -52q-80 0 -131 52.5t-51 133.5t52 133.5t132 52.5q81 0 131.5 -52t50.5 -134z"/>
<glyph glyph-name="cedilla" horiz-adv-x="600" unicode="¸" d="M242 8h164l-54 -96q64 -8 105 -48.5t41 -95.5q0 -92 -69 -134t-177 -42q-94 0 -162 40l40 112q59 -32 110 -32q72 0 72 52q0 61 -158 72z"/>
<glyph glyph-name="one.superior" horiz-adv-x="748" unicode="¹" d="M542 534h-240v586l-164 -70l-30 168l226 94h208v-778z"/>
<glyph glyph-name="ordmasculine" horiz-adv-x="790" unicode="º" d="M524 854q0 72 -35.5 125t-92.5 53q-60 0 -94 -53t-34 -129q0 -75 36 -125.5t92 -50.5q59 0 93.5 48.5t34.5 131.5zM46 848q0 147 98.5 240.5t253.5 93.5q153 0 248.5 -91t95.5 -231q0 -159 -102 -247.5t-248 -88.5q-148 0 -247 91t-99 233z"/>
<glyph glyph-name="guillemotright" horiz-adv-x="948" unicode="»" d="M682 506l-242 382h212l236 -382l-236 -384h-212zM292 506l-242 382h212l236 -382l-236 -384h-212z"/>
<glyph glyph-name="onequarter" horiz-adv-x="1702" unicode="¼" d="M511 534h-240v586l-164 -70l-30 168l226 94h208v-778zM528 -22h-168l744 1344h168zM1300 333v150q0 14 8 150h-4q-57 -110 -72 -131l-118 -167l6 -2h180zM1522 3h-222v180h-402v126l348 482h276v-458h108v-150h-108v-180z"/>
<glyph glyph-name="onehalf" horiz-adv-x="1702" unicode="½" d="M487 534h-240v586l-164 -70l-30 168l226 94h208v-778zM480 -22h-168l744 1344h168zM992 3v112q285 242 325.5 297t40.5 99q0 43 -31.5 69.5t-88.5 26.5q-92 0 -176 -56l-64 152q128 88 300 88q143 0 226.5 -67t83.5 -175q0 -70 -41.5 -142t-238.5 -226v-4h296v-174h-632z "/>
<glyph glyph-name="threequarters" horiz-adv-x="1702" unicode="¾" d="M134 1110l-46 146q116 66 292 66q139 0 217.5 -54.5t78.5 -143.5q0 -125 -170 -176v-4q93 -11 146.5 -61t53.5 -123q0 -106 -100.5 -171t-267.5 -65q-172 0 -280 58l46 158q102 -54 204 -54q65 0 105.5 25t40.5 63q0 45 -50 71.5t-126 26.5h-64v138h60q67 0 111.5 21 t44.5 59q0 70 -106 70q-95 0 -190 -50zM600 -18h-168l744 1344h168zM1320 333v150q0 14 8 150h-4q-57 -110 -72 -131l-118 -167l6 -2h180zM1542 3h-222v180h-402v126l348 482h276v-458h108v-150h-108v-180z"/>
<glyph glyph-name="questiondown" horiz-adv-x="916" unicode="¿" d="M368 528h270q2 -63 2 -71q0 -157 -118 -293q-77 -88 -98.5 -131t-21.5 -77q0 -118 146 -118q116 0 208 62l70 -220q-149 -84 -346 -84q-183 0 -286.5 86.5t-103.5 225.5q0 70 36.5 147.5t137.5 186.5q104 112 104 252v34zM326 804q0 80 51 132t131 52t131 -52t51 -132 t-50 -132t-132 -52q-80 0 -131 52t-51 132z"/>
<glyph glyph-name="Agrave" horiz-adv-x="1358" unicode="À" d="M506 580h310q-122 395 -158 542h-4l-64 -256zM864 352h-404l-100 -352h-322l426 1348h408l438 -1348h-336zM312 1704h322l176 -250h-248z"/>
<glyph glyph-name="Aacute" horiz-adv-x="1358" unicode="Á" d="M506 580h310q-122 395 -158 542h-4l-64 -256zM864 352h-404l-100 -352h-322l426 1348h408l438 -1348h-336zM713 1702h324l-248 -252h-248z"/>
<glyph glyph-name="Acircumflex" horiz-adv-x="1358" unicode="Â" d="M506 580h310q-122 395 -158 542h-4l-64 -256zM864 352h-404l-100 -352h-322l426 1348h408l438 -1348h-336zM577 1702h220l210 -252h-214l-104 132l-106 -132h-216z"/>
<glyph glyph-name="Atilde" horiz-adv-x="1358" unicode="Ã" d="M506 580h310q-122 395 -158 542h-4l-64 -256zM864 352h-404l-100 -352h-322l426 1348h408l438 -1348h-336zM537 1458h-142q0 254 156 254q56 0 132 -40q80 -40 90 -40q30 0 40.5 21.5t15.5 66.5h138q0 -151 -43.5 -199.5t-116.5 -48.5q-64 0 -132 38q-68 36 -90 36 q-42 0 -48 -88z"/>
<glyph glyph-name="Adieresis" horiz-adv-x="1358" unicode="Ä" d="M506 580h310q-122 395 -158 542h-4l-64 -256zM864 352h-404l-100 -352h-322l426 1348h408l438 -1348h-336zM1027 1592q0 -57 -38.5 -96.5t-95.5 -39.5q-60 0 -99 39.5t-39 96.5q0 59 39.5 98.5t98.5 39.5q57 0 95.5 -40t38.5 -98zM613 1592q0 -56 -38 -96t-94 -40 q-60 0 -101 40t-41 96q0 58 41 98t101 40q55 0 93.5 -40t38.5 -98z"/>
<glyph glyph-name="Aring" horiz-adv-x="1358" unicode="Å" d="M504 580h312q-101 326 -160 542l-64 -242zM782 1496q0 46 -29 76t-79 30q-49 0 -76.5 -29t-27.5 -79q0 -45 28.5 -74.5t75.5 -29.5q50 0 79 28.5t29 77.5zM866 352h-406l-98 -352h-324l426 1348q-58 45 -58 140q0 92 72.5 155t197.5 63q128 0 198 -58t70 -158t-72 -142 l438 -1348h-336z"/>
<glyph glyph-name="AE" horiz-adv-x="1798" unicode="Æ" d="M578 618h278l-68 512h-6l-68 -184zM328 0h-320l594 1348h1060v-252h-576l36 -282h532v-250h-490l44 -312h532v-252h-798l-50 368h-410z"/>
<glyph glyph-name="Ccedilla" horiz-adv-x="1238" unicode="Ç" d="M1114 280l54 -240q-130 -58 -362 -62l-38 -66q66 -9 106 -49.5t40 -96.5q0 -91 -68.5 -132.5t-175.5 -41.5q-98 0 -162 40l40 112q56 -32 108 -32q72 0 72 52q0 61 -158 72l80 154q-278 43 -428 221.5t-150 444.5q0 324 212 519t546 195q222 0 350 -62l-64 -244 q-128 54 -274 54q-201 0 -322.5 -118t-121.5 -326q0 -203 119.5 -321.5t326.5 -118.5q151 0 270 46z"/>
<glyph glyph-name="Egrave" horiz-adv-x="1100" unicode="È" d="M962 818v-250h-518v-316h578v-252h-888v1348h860v-252h-550v-278h518zM233 1704h322l176 -250h-248z"/>
<glyph glyph-name="Eacute" horiz-adv-x="1100" unicode="É" d="M962 818v-250h-518v-316h578v-252h-888v1348h860v-252h-550v-278h518zM598 1703h324l-248 -252h-248z"/>
<glyph glyph-name="Ecircumflex" horiz-adv-x="1100" unicode="Ê" d="M962 818v-250h-518v-316h578v-252h-888v1348h860v-252h-550v-278h518zM465 1702h220l210 -252h-214l-104 132l-106 -132h-216z"/>
<glyph glyph-name="Edieresis" horiz-adv-x="1100" unicode="Ë" d="M962 818v-250h-518v-316h578v-252h-888v1348h860v-252h-550v-278h518zM904 1592q0 -57 -38.5 -96.5t-95.5 -39.5q-60 0 -99 39.5t-39 96.5q0 59 39.5 98.5t98.5 39.5q57 0 95.5 -40t38.5 -98zM490 1592q0 -56 -38 -96t-94 -40q-60 0 -101 40t-41 96q0 58 41 98t101 40 q55 0 93.5 -40t38.5 -98z"/>
<glyph glyph-name="Igrave" horiz-adv-x="578" unicode="Ì" d="M134 1348h310v-1348h-310v1348zM-57 1704h322l176 -250h-248z"/>
<glyph glyph-name="Iacute" horiz-adv-x="578" unicode="Í" d="M134 1348h310v-1348h-310v1348zM315 1702h324l-248 -252h-248z"/>
<glyph glyph-name="Icircumflex" horiz-adv-x="578" unicode="Î" d="M134 1348h310v-1348h-310v1348zM183 1702h220l210 -252h-214l-104 132l-106 -132h-216z"/>
<glyph glyph-name="Idieresis" horiz-adv-x="578" unicode="Ï" d="M134 1348h310v-1348h-310v1348zM635 1592q0 -57 -38.5 -96.5t-95.5 -39.5q-60 0 -99 39.5t-39 96.5q0 59 39.5 98.5t98.5 39.5q57 0 95.5 -40t38.5 -98zM221 1592q0 -56 -38 -96t-94 -40q-60 0 -101 40t-41 96q0 58 41 98t101 40q55 0 93.5 -40t38.5 -98z"/>
<glyph glyph-name="Eth" horiz-adv-x="1458" unicode="Ð" d="M742 808v-244h-282v-338q25 -6 114 -6q235 0 359.5 122.5t124.5 355.5q0 209 -115.5 318.5t-334.5 109.5q-91 0 -148 -12v-306h282zM4 564v244h146v526q200 30 428 30q312 0 479.5 -86t248 -231t80.5 -337q0 -347 -213.5 -538.5t-660.5 -191.5q-206 0 -362 20v564h-146z "/>
<glyph glyph-name="Ntilde" horiz-adv-x="1422" unicode="Ñ" d="M420 0h-286v1348h368l325 -551q93 -161 195 -409h4q-24 212 -24 556v404h286v-1348h-328q-343 595 -409 717.5t-137 286.5h-8q14 -255 14 -586v-418zM566 1458h-142q0 254 156 254q56 0 132 -40q80 -40 90 -40q30 0 40.5 21.5t15.5 66.5h138q0 -151 -43.5 -199.5 t-116.5 -48.5q-64 0 -132 38q-68 36 -90 36q-42 0 -48 -88z"/>
<glyph glyph-name="Ograve" horiz-adv-x="1490" unicode="Ò" d="M398 672q0 -198 95 -324t249 -126q158 0 252 125t94 329q0 196 -94.5 323t-249.5 127q-156 0 -251 -127.5t-95 -326.5zM1418 686q0 -321 -188.5 -514.5t-495.5 -193.5q-298 0 -480 192.5t-182 493.5q0 308 190 507t490 199q302 0 484 -192t182 -492zM391 1704h322 l176 -250h-248z"/>
<glyph glyph-name="Oacute" horiz-adv-x="1490" unicode="Ó" d="M398 672q0 -198 95 -324t249 -126q158 0 252 125t94 329q0 196 -94.5 323t-249.5 127q-156 0 -251 -127.5t-95 -326.5zM1418 686q0 -321 -188.5 -514.5t-495.5 -193.5q-298 0 -480 192.5t-182 493.5q0 308 190 507t490 199q302 0 484 -192t182 -492zM784 1702h324 l-248 -252h-248z"/>
<glyph glyph-name="Ocircumflex" horiz-adv-x="1490" unicode="Ô" d="M398 672q0 -198 95 -324t249 -126q158 0 252 125t94 329q0 196 -94.5 323t-249.5 127q-156 0 -251 -127.5t-95 -326.5zM1418 686q0 -321 -188.5 -514.5t-495.5 -193.5q-298 0 -480 192.5t-182 493.5q0 308 190 507t490 199q302 0 484 -192t182 -492zM636 1702h220 l210 -252h-214l-104 132l-106 -132h-216z"/>
<glyph glyph-name="Otilde" horiz-adv-x="1490" unicode="Õ" d="M398 672q0 -198 95 -324t249 -126q158 0 252 125t94 329q0 196 -94.5 323t-249.5 127q-156 0 -251 -127.5t-95 -326.5zM1418 686q0 -321 -188.5 -514.5t-495.5 -193.5q-298 0 -480 192.5t-182 493.5q0 308 190 507t490 199q302 0 484 -192t182 -492zM602 1458h-142 q0 254 156 254q56 0 132 -40q80 -40 90 -40q30 0 40.5 21.5t15.5 66.5h138q0 -151 -43.5 -199.5t-116.5 -48.5q-64 0 -132 38q-68 36 -90 36q-42 0 -48 -88z"/>
<glyph glyph-name="Odieresis" horiz-adv-x="1490" unicode="Ö" d="M398 672q0 -198 95 -324t249 -126q158 0 252 125t94 329q0 196 -94.5 323t-249.5 127q-156 0 -251 -127.5t-95 -326.5zM1418 686q0 -321 -188.5 -514.5t-495.5 -193.5q-298 0 -480 192.5t-182 493.5q0 308 190 507t490 199q302 0 484 -192t182 -492zM1087 1592 q0 -57 -38.5 -96.5t-95.5 -39.5q-60 0 -99 39.5t-39 96.5q0 59 39.5 98.5t98.5 39.5q57 0 95.5 -40t38.5 -98zM673 1592q0 -56 -38 -96t-94 -40q-60 0 -101 40t-41 96q0 58 41 98t101 40q55 0 93.5 -40t38.5 -98z"/>
<glyph glyph-name="multiply" horiz-adv-x="1192" unicode="×" d="M80 920l132 134l384 -392l384 392l132 -134l-382 -392l382 -392l-134 -136l-382 392l-382 -392l-134 136l384 392z"/>
<glyph glyph-name="Oslash" horiz-adv-x="1490" unicode="Ø" d="M1054 910l-460 -648q61 -46 152 -46q163 0 261.5 126.5t98.5 333.5q0 122 -52 234zM912 1084q-77 48 -166 48q-164 0 -263 -127t-99 -331q0 -133 56 -252zM320 -136l-170 136l118 168q-196 196 -196 504q0 302 190 500t486 198q174 0 310 -72l116 164l176 -122l-116 -166 q184 -196 184 -492q0 -317 -188 -510.5t-484 -193.5q-162 0 -298 68z"/>
<glyph glyph-name="Ugrave" horiz-adv-x="1406" unicode="Ù" d="M134 1348h310v-764q0 -176 66 -269t190 -93q262 0 262 362v764h310v-748q0 -305 -149 -463.5t-433 -158.5q-556 0 -556 626v744zM359 1704h322l176 -250h-248z"/>
<glyph glyph-name="Uacute" horiz-adv-x="1406" unicode="Ú" d="M134 1348h310v-764q0 -176 66 -269t190 -93q262 0 262 362v764h310v-748q0 -305 -149 -463.5t-433 -158.5q-556 0 -556 626v744zM742 1702h324l-248 -252h-248z"/>
<glyph glyph-name="Ucircumflex" horiz-adv-x="1406" unicode="Û" d="M134 1348h310v-764q0 -176 66 -269t190 -93q262 0 262 362v764h310v-748q0 -305 -149 -463.5t-433 -158.5q-556 0 -556 626v744zM616 1702h220l210 -252h-214l-104 132l-106 -132h-216z"/>
<glyph glyph-name="Udieresis" horiz-adv-x="1406" unicode="Ü" d="M134 1348h310v-764q0 -176 66 -269t190 -93q262 0 262 362v764h310v-748q0 -305 -149 -463.5t-433 -158.5q-556 0 -556 626v744zM1059 1592q0 -57 -38.5 -96.5t-95.5 -39.5q-60 0 -99 39.5t-39 96.5q0 59 39.5 98.5t98.5 39.5q57 0 95.5 -40t38.5 -98zM645 1592 q0 -56 -38 -96t-94 -40q-60 0 -101 40t-41 96q0 58 41 98t101 40q55 0 93.5 -40t38.5 -98z"/>
<glyph glyph-name="Yacute" horiz-adv-x="1252" unicode="Ý" d="M774 0h-310v556l-440 792h356q245 -557 254 -580q46 124 250 580h352l-462 -780v-568zM683 1702h324l-248 -252h-248z"/>
<glyph glyph-name="Thorn" horiz-adv-x="1190" unicode="Þ" d="M440 868v-366q49 -12 132 -12q120 0 184 52.5t64 145.5q0 91 -62.5 140.5t-177.5 49.5q-99 0 -140 -10zM134 0v1348h306v-244q72 8 176 8q257 0 383.5 -114.5t126.5 -285.5q0 -235 -149.5 -347.5t-392.5 -112.5q-74 0 -144 10v-262h-306z"/>
<glyph glyph-name="germandbls" horiz-adv-x="1224" unicode="ß" d="M436 0h-310v862q0 294 138.5 439t385.5 145q190 0 314 -104t124 -270q0 -105 -50 -164q-116 -55 -116 -138q0 -61 68 -132q162 -172 162 -314q0 -157 -110 -251.5t-300 -94.5q-136 0 -218 34l38 226q57 -28 142 -28q62 0 99 28.5t37 73.5q0 57 -72 132q-158 163 -158 286 q0 162 164 252q16 31 16 66q0 72 -44 118t-116 46q-194 0 -194 -324v-888z"/>
<glyph glyph-name="agrave" horiz-adv-x="1082" unicode="à" d="M660 362v100q-294 0 -294 -152q0 -55 33 -85.5t91 -30.5q63 0 116.5 44t53.5 124zM958 578v-340q0 -148 16 -238h-278l-18 98h-8q-101 -120 -286 -120q-144 0 -234 87.5t-90 212.5q0 182 152.5 279t437.5 97v12q0 122 -184 122q-150 0 -278 -74l-58 196q163 90 390 90 q216 0 327 -109t111 -313zM208 1402h286l176 -306h-212z"/>
<glyph glyph-name="aacute" horiz-adv-x="1082" unicode="á" d="M660 362v100q-294 0 -294 -152q0 -55 33 -85.5t91 -30.5q63 0 116.5 44t53.5 124zM958 578v-340q0 -148 16 -238h-278l-18 98h-8q-101 -120 -286 -120q-144 0 -234 87.5t-90 212.5q0 182 152.5 279t437.5 97v12q0 122 -184 122q-150 0 -278 -74l-58 196q163 90 390 90 q216 0 327 -109t111 -313zM574 1402h286l-250 -306h-212z"/>
<glyph glyph-name="acircumflex" horiz-adv-x="1082" unicode="â" d="M660 362v100q-294 0 -294 -152q0 -55 33 -85.5t91 -30.5q63 0 116.5 44t53.5 124zM958 578v-340q0 -148 16 -238h-278l-18 98h-8q-101 -120 -286 -120q-144 0 -234 87.5t-90 212.5q0 182 152.5 279t437.5 97v12q0 122 -184 122q-150 0 -278 -74l-58 196q163 90 390 90 q216 0 327 -109t111 -313zM434 1402h198l202 -306h-198l-102 174l-106 -174h-196z"/>
<glyph glyph-name="atilde" horiz-adv-x="1082" unicode="ã" d="M660 362v100q-294 0 -294 -152q0 -55 33 -85.5t91 -30.5q63 0 116.5 44t53.5 124zM958 578v-340q0 -148 16 -238h-278l-18 98h-8q-101 -120 -286 -120q-144 0 -234 87.5t-90 212.5q0 182 152.5 279t437.5 97v12q0 122 -184 122q-150 0 -278 -74l-58 196q163 90 390 90 q216 0 327 -109t111 -313zM377 1110h-138q0 254 154 254q45 0 134 -40q65 -38 88 -38q29 0 39.5 21.5t14.5 66.5h136q0 -133 -39 -190.5t-121 -57.5q-58 0 -142 44q-54 30 -78 30q-42 0 -48 -90z"/>
<glyph glyph-name="adieresis" horiz-adv-x="1082" unicode="ä" d="M660 362v100q-294 0 -294 -152q0 -55 33 -85.5t91 -30.5q63 0 116.5 44t53.5 124zM958 578v-340q0 -148 16 -238h-278l-18 98h-8q-101 -120 -286 -120q-144 0 -234 87.5t-90 212.5q0 182 152.5 279t437.5 97v12q0 122 -184 122q-150 0 -278 -74l-58 196q163 90 390 90 q216 0 327 -109t111 -313zM885 1228q0 -57 -38.5 -97.5t-97.5 -40.5q-58 0 -98 40.5t-40 97.5q0 59 39.5 98.5t98.5 39.5q58 0 97 -39t39 -99zM469 1228q0 -57 -38.5 -97.5t-95.5 -40.5q-59 0 -99.5 41t-40.5 97q0 58 41 98t101 40q56 0 94 -39.5t38 -98.5z"/>
<glyph glyph-name="aring" horiz-adv-x="1082" unicode="å" d="M660 362v100q-294 0 -294 -152q0 -55 33 -85.5t91 -30.5q63 0 116.5 44t53.5 124zM958 578v-340q0 -148 16 -238h-278l-18 98h-8q-101 -120 -286 -120q-144 0 -234 87.5t-90 212.5q0 182 152.5 279t437.5 97v12q0 122 -184 122q-150 0 -278 -74l-58 196q163 90 390 90 q216 0 327 -109t111 -313zM637 1274q0 42 -25.5 70t-66.5 28q-42 0 -67 -28.5t-25 -71.5q0 -38 25.5 -66t64.5 -28q42 0 68 27.5t26 68.5zM311 1272q0 89 63.5 145.5t170.5 56.5t168.5 -55.5t61.5 -146.5q0 -85 -63.5 -140.5t-166.5 -55.5q-105 0 -169.5 55.5t-64.5 140.5z "/>
<glyph glyph-name="ae" horiz-adv-x="1646" unicode="æ" d="M664 358v98q-298 0 -298 -150q0 -52 35.5 -82t92.5 -30q60 0 103 31.5t55 61.5t12 71zM940 612h360q0 81 -45 133.5t-127 52.5q-80 0 -131.5 -55t-56.5 -131zM1578 402h-636q6 -90 80.5 -143t189.5 -53q154 0 284 54l42 -206q-145 -76 -370 -76q-126 0 -227.5 45.5 t-152.5 128.5h-8q-129 -174 -374 -174q-156 0 -251 87t-95 219q0 175 158.5 267.5t437.5 92.5v28q0 37 -48 75.5t-144 38.5q-143 0 -272 -76l-60 196q179 94 354 94q238 0 336 -160q127 160 342 160q198 0 310 -140t112 -348q0 -21 -8 -110z"/>
<glyph glyph-name="ccedilla" horiz-adv-x="932" unicode="ç" d="M844 252l42 -226q-102 -43 -252 -46l-38 -66q65 -9 105.5 -50t40.5 -96q0 -92 -69 -134t-177 -42q-94 0 -162 40l42 114q54 -34 108 -34q72 0 72 52q0 61 -158 72l78 154q-195 34 -302.5 165.5t-107.5 326.5q0 222 151 370t421 148q137 0 244 -40l-50 -230 q-72 34 -178 34q-122 0 -196 -75.5t-74 -196.5q0 -126 77.5 -200t198.5 -74q102 0 184 34z"/>
<glyph glyph-name="egrave" horiz-adv-x="1080" unicode="è" d="M358 602h376q0 69 -40.5 131.5t-137.5 62.5q-80 0 -132.5 -53.5t-65.5 -140.5zM1010 390h-650q8 -87 87.5 -135.5t198.5 -48.5q152 0 280 42l40 -206q-152 -64 -364 -64q-251 0 -393.5 134t-142.5 366q0 213 137 367.5t369 154.5q214 0 332 -138t118 -354q0 -71 -12 -118 zM248 1402h286l176 -306h-212z"/>
<glyph glyph-name="eacute" horiz-adv-x="1080" unicode="é" d="M358 602h376q0 69 -40.5 131.5t-137.5 62.5q-80 0 -132.5 -53.5t-65.5 -140.5zM1010 390h-650q8 -87 87.5 -135.5t198.5 -48.5q152 0 280 42l40 -206q-152 -64 -364 -64q-251 0 -393.5 134t-142.5 366q0 213 137 367.5t369 154.5q214 0 332 -138t118 -354q0 -71 -12 -118 zM614 1402h286l-250 -306h-212z"/>
<glyph glyph-name="ecircumflex" horiz-adv-x="1080" unicode="ê" d="M358 602h376q0 69 -40.5 131.5t-137.5 62.5q-80 0 -132.5 -53.5t-65.5 -140.5zM1010 390h-650q8 -87 87.5 -135.5t198.5 -48.5q152 0 280 42l40 -206q-152 -64 -364 -64q-251 0 -393.5 134t-142.5 366q0 213 137 367.5t369 154.5q214 0 332 -138t118 -354q0 -71 -12 -118 zM464 1402h198l202 -306h-198l-102 174l-106 -174h-196z"/>
<glyph glyph-name="edieresis" horiz-adv-x="1080" unicode="ë" d="M358 602h376q0 69 -40.5 131.5t-137.5 62.5q-80 0 -132.5 -53.5t-65.5 -140.5zM1010 390h-650q8 -87 87.5 -135.5t198.5 -48.5q152 0 280 42l40 -206q-152 -64 -364 -64q-251 0 -393.5 134t-142.5 366q0 213 137 367.5t369 154.5q214 0 332 -138t118 -354q0 -71 -12 -118 zM918 1228q0 -57 -38.5 -97.5t-97.5 -40.5q-58 0 -98 40.5t-40 97.5q0 59 39.5 98.5t98.5 39.5q58 0 97 -39t39 -99zM502 1228q0 -57 -38.5 -97.5t-95.5 -40.5q-59 0 -99.5 41t-40.5 97q0 58 41 98t101 40q56 0 94 -39.5t38 -98.5z"/>
<glyph glyph-name="igrave" horiz-adv-x="560" unicode="ì" d="M436 0h-310v978h310v-978zM-59 1402h286l176 -306h-212z"/>
<glyph glyph-name="iacute" horiz-adv-x="560" unicode="í" d="M436 0h-310v978h310v-978zM328 1402h286l-250 -306h-212z"/>
<glyph glyph-name="icircumflex" horiz-adv-x="560" unicode="î" d="M436 0h-310v978h310v-978zM185 1402h198l202 -306h-198l-102 174l-106 -174h-196z"/>
<glyph glyph-name="idieresis" horiz-adv-x="560" unicode="ï" d="M436 0h-310v978h310v-978zM627 1228q0 -57 -38.5 -97.5t-97.5 -40.5q-58 0 -98 40.5t-40 97.5q0 59 39.5 98.5t98.5 39.5q58 0 97 -39t39 -99zM211 1228q0 -57 -38.5 -97.5t-95.5 -40.5q-59 0 -99.5 41t-40.5 97q0 58 41 98t101 40q56 0 94 -39.5t38 -98.5z"/>
<glyph glyph-name="eth" horiz-adv-x="1182" unicode="ð" d="M386 476q0 -122 55.5 -200t148.5 -78q96 0 150 76.5t54 209.5q0 151 -51 211.5t-149 60.5q-99 0 -153.5 -81t-54.5 -199zM222 950l-54 124l214 94q-86 53 -194 94l128 176q166 -56 334 -162l286 122l62 -120l-218 -92q336 -268 336 -672q0 -248 -149 -392t-375 -144 q-227 0 -375.5 138t-148.5 358q0 209 143 339.5t341 130.5q85 0 146 -42l4 6q-81 103 -182 168z"/>
<glyph glyph-name="ntilde" horiz-adv-x="1200" unicode="ñ" d="M126 0v664q0 145 -8 314h268l14 -138h8q109 160 310 160q165 0 262.5 -111.5t97.5 -314.5v-574h-310v534q0 218 -162 218q-66 0 -118 -50t-52 -142v-560h-310zM459 1110h-138q0 254 154 254q45 0 134 -40q65 -38 88 -38q29 0 39.5 21.5t14.5 66.5h136q0 -133 -39 -190.5 t-121 -57.5q-58 0 -142 44q-54 30 -78 30q-42 0 -48 -90z"/>
<glyph glyph-name="ograve" horiz-adv-x="1186" unicode="ò" d="M384 488q0 -130 56.5 -210t151.5 -80q93 0 149.5 79t56.5 213q0 128 -54 209t-150 81q-99 0 -154.5 -81.5t-55.5 -210.5zM1120 500q0 -240 -151 -381t-379 -141q-230 0 -377 138.5t-147 365.5q0 233 148 375.5t392 142.5q228 0 371 -140t143 -360zM278 1402h286l176 -306 h-212z"/>
<glyph glyph-name="oacute" horiz-adv-x="1186" unicode="ó" d="M384 488q0 -130 56.5 -210t151.5 -80q93 0 149.5 79t56.5 213q0 128 -54 209t-150 81q-99 0 -154.5 -81.5t-55.5 -210.5zM1120 500q0 -240 -151 -381t-379 -141q-230 0 -377 138.5t-147 365.5q0 233 148 375.5t392 142.5q228 0 371 -140t143 -360zM630 1402h286 l-250 -306h-212z"/>
<glyph glyph-name="ocircumflex" horiz-adv-x="1186" unicode="ô" d="M384 488q0 -130 56.5 -210t151.5 -80q93 0 149.5 79t56.5 213q0 128 -54 209t-150 81q-99 0 -154.5 -81.5t-55.5 -210.5zM1120 500q0 -240 -151 -381t-379 -141q-230 0 -377 138.5t-147 365.5q0 233 148 375.5t392 142.5q228 0 371 -140t143 -360zM496 1402h198l202 -306 h-198l-102 174l-106 -174h-196z"/>
<glyph glyph-name="otilde" horiz-adv-x="1186" unicode="õ" d="M384 488q0 -130 56.5 -210t151.5 -80q93 0 149.5 79t56.5 213q0 128 -54 209t-150 81q-99 0 -154.5 -81.5t-55.5 -210.5zM1120 500q0 -240 -151 -381t-379 -141q-230 0 -377 138.5t-147 365.5q0 233 148 375.5t392 142.5q228 0 371 -140t143 -360zM450 1110h-138 q0 254 154 254q45 0 134 -40q65 -38 88 -38q29 0 39.5 21.5t14.5 66.5h136q0 -133 -39 -190.5t-121 -57.5q-58 0 -142 44q-54 30 -78 30q-42 0 -48 -90z"/>
<glyph glyph-name="odieresis" horiz-adv-x="1186" unicode="ö" d="M384 488q0 -130 56.5 -210t151.5 -80q93 0 149.5 79t56.5 213q0 128 -54 209t-150 81q-99 0 -154.5 -81.5t-55.5 -210.5zM1120 500q0 -240 -151 -381t-379 -141q-230 0 -377 138.5t-147 365.5q0 233 148 375.5t392 142.5q228 0 371 -140t143 -360zM938 1228 q0 -57 -38.5 -97.5t-97.5 -40.5q-58 0 -98 40.5t-40 97.5q0 59 39.5 98.5t98.5 39.5q58 0 97 -39t39 -99zM522 1228q0 -57 -38.5 -97.5t-95.5 -40.5q-59 0 -99.5 41t-40.5 97q0 58 41 98t101 40q56 0 94 -39.5t38 -98.5z"/>
<glyph glyph-name="divide" horiz-adv-x="1192" unicode="÷" d="M744 180q0 -67 -41 -108.5t-109 -41.5q-65 0 -106.5 42t-41.5 108q0 69 41 110.5t109 41.5q66 0 107 -42t41 -110zM1110 440h-1032v188h1032v-188zM746 886q0 -67 -41 -108.5t-109 -41.5q-65 0 -106.5 42t-41.5 108q0 69 41 110.5t109 41.5q66 0 107 -42t41 -110z"/>
<glyph glyph-name="oslash" horiz-adv-x="1186" unicode="ø" d="M786 642l-296 -410q39 -34 106 -34q104 0 166 78t62 210q0 91 -34 154zM410 328l296 418q-47 34 -112 34q-106 0 -166 -83t-60 -209q0 -98 38 -158zM246 96q-178 141 -178 390q0 229 145.5 371.5t380.5 142.5q138 0 246 -54l96 142l104 -74l-92 -134q172 -140 172 -386 q0 -154 -68 -271t-190 -181t-266 -64q-137 0 -238 52l-102 -144l-100 80z"/>
<glyph glyph-name="ugrave" horiz-adv-x="1198" unicode="ù" d="M1072 978v-662q0 -157 8 -316h-268l-14 142h-8q-104 -164 -314 -164q-168 0 -261 109.5t-93 316.5v574h310v-522q0 -230 160 -230q67 0 118.5 49t51.5 125v578h310zM266 1402h286l176 -306h-212z"/>
<glyph glyph-name="uacute" horiz-adv-x="1198" unicode="ú" d="M1072 978v-662q0 -157 8 -316h-268l-14 142h-8q-104 -164 -314 -164q-168 0 -261 109.5t-93 316.5v574h310v-522q0 -230 160 -230q67 0 118.5 49t51.5 125v578h310zM646 1402h286l-250 -306h-212z"/>
<glyph glyph-name="ucircumflex" horiz-adv-x="1198" unicode="û" d="M1072 978v-662q0 -157 8 -316h-268l-14 142h-8q-104 -164 -314 -164q-168 0 -261 109.5t-93 316.5v574h310v-522q0 -230 160 -230q67 0 118.5 49t51.5 125v578h310zM500 1402h198l202 -306h-198l-102 174l-106 -174h-196z"/>
<glyph glyph-name="udieresis" horiz-adv-x="1198" unicode="ü" d="M1072 978v-662q0 -157 8 -316h-268l-14 142h-8q-104 -164 -314 -164q-168 0 -261 109.5t-93 316.5v574h310v-522q0 -230 160 -230q67 0 118.5 49t51.5 125v578h310zM948 1228q0 -57 -38.5 -97.5t-97.5 -40.5q-58 0 -98 40.5t-40 97.5q0 59 39.5 98.5t98.5 39.5 q58 0 97 -39t39 -99zM532 1228q0 -57 -38.5 -97.5t-95.5 -40.5q-59 0 -99.5 41t-40.5 97q0 58 41 98t101 40q56 0 94 -39.5t38 -98.5z"/>
<glyph glyph-name="yacute" horiz-adv-x="1076" unicode="ý" d="M14 978h344q189 -600 202 -662h6l172 662h332l-226 -619q-91 -250 -165 -396.5t-147.5 -225t-164.5 -124t-187 -55.5l-64 260q131 26 206.5 102t75.5 112q0 13 -16 52zM612 1402h286l-250 -306h-212z"/>
<glyph glyph-name="thorn" horiz-adv-x="1230" unicode="þ" d="M434 560v-156q0 -55 52 -122.5t144 -67.5q99 0 158.5 75.5t59.5 204.5q0 116 -58 191t-152 75t-149 -63.5t-55 -136.5zM124 1354h310v-496h4q103 142 311 142q171 0 292 -138t121 -364q0 -240 -135 -380t-321 -140q-177 0 -268 116h-4v-490h-310v1750z"/>
<glyph glyph-name="dotlessi" horiz-adv-x="560" unicode="ı" d="M436 0h-310v978h310v-978z"/>
<glyph glyph-name="OE" horiz-adv-x="1938" unicode="Œ" d="M972 246v852q-63 28 -166 28q-177 0 -291.5 -123.5t-114.5 -330.5q0 -203 115.5 -326.5t312.5 -123.5q88 0 144 24zM1860 252v-252h-788q-48 0 -128 -10q-96 -12 -174 -12q-325 0 -511.5 191t-186.5 493q0 322 193.5 515t508.5 193q105 0 192 -10q104 -12 132 -12h734 v-252h-550v-278h518v-250h-518v-316h578z"/>
<glyph glyph-name="oe" horiz-adv-x="1784" unicode="œ" d="M794 490q0 130 -53 210t-145 80q-101 0 -155.5 -80t-54.5 -212q0 -130 56 -210t150 -80q93 0 147.5 78t54.5 214zM1072 606h364q0 85 -45 137.5t-133 52.5q-78 0 -129 -55t-57 -135zM1716 396h-636q7 -86 85 -137t189 -51q146 0 280 54l42 -208q-138 -76 -364 -76 q-247 0 -376 174q-127 -174 -378 -174q-211 0 -351.5 141t-140.5 367q0 228 142.5 371t369.5 143q114 0 209 -46t149 -130q124 176 350 176q209 0 323.5 -137.5t114.5 -352.5q0 -33 -8 -114z"/>
<glyph glyph-name="Scaron" horiz-adv-x="1114" unicode="Š" d="M84 64l64 254q173 -88 352 -88q103 0 160.5 39t57.5 107q0 61 -52 102t-180 84q-386 128 -386 402q0 177 142 291.5t378 114.5q206 0 360 -70l-70 -246q-141 66 -294 66q-94 0 -147 -36t-53 -94q0 -53 44.5 -90.5t213.5 -97.5q187 -66 273.5 -163.5t86.5 -242.5 q0 -186 -146 -302t-408 -116q-224 0 -396 86zM697 1450h-226l-208 252h212l110 -132l104 132h214z"/>
<glyph glyph-name="scaron" horiz-adv-x="894" unicode="š" d="M68 48l56 220q54 -31 132.5 -52.5t139.5 -21.5q134 0 134 80q0 40 -32.5 62t-115.5 48q-288 89 -288 292q0 141 112.5 232.5t295.5 91.5q160 0 284 -58l-54 -212q-116 56 -220 56q-120 0 -120 -78q0 -35 36.5 -59t127.5 -53q140 -44 206 -116.5t66 -183.5 q0 -145 -114 -231.5t-318 -86.5q-188 0 -328 70zM556 1096h-206l-202 306h198l108 -176l106 176h198z"/>
<glyph glyph-name="Ydieresis" horiz-adv-x="1252" unicode="Ÿ" d="M774 0h-310v556l-440 792h356q245 -557 254 -580q46 124 250 580h352l-462 -780v-568zM985 1592q0 -57 -38.5 -96.5t-95.5 -39.5q-60 0 -99 39.5t-39 96.5q0 59 39.5 98.5t98.5 39.5q57 0 95.5 -40t38.5 -98zM571 1592q0 -56 -38 -96t-94 -40q-60 0 -101 40t-41 96 q0 58 41 98t101 40q55 0 93.5 -40t38.5 -98z"/>
<glyph glyph-name="circumflex" horiz-adv-x="600" unicode="ˆ" d="M202 1402h198l202 -306h-198l-102 174l-106 -174h-196z"/>
<glyph glyph-name="caron" horiz-adv-x="600" unicode="ˇ" d="M402 1096h-206l-202 306h198l108 -176l106 176h198z"/>
<glyph glyph-name="ring" horiz-adv-x="800" unicode="˚" d="M494 1274q0 42 -25.5 70t-66.5 28q-42 0 -67 -28.5t-25 -71.5q0 -38 25.5 -66t64.5 -28q42 0 68 27.5t26 68.5zM168 1272q0 89 63.5 145.5t170.5 56.5t168.5 -55.5t61.5 -146.5q0 -85 -63.5 -140.5t-166.5 -55.5q-105 0 -169.5 55.5t-64.5 140.5z"/>
<glyph glyph-name="tilde" horiz-adv-x="600" unicode="˜" d="M156 1110h-138q0 254 154 254q45 0 134 -40q65 -38 88 -38q29 0 39.5 21.5t14.5 66.5h136q0 -133 -39 -190.5t-121 -57.5q-58 0 -142 44q-54 30 -78 30q-42 0 -48 -90z"/>
<glyph glyph-name="pi" horiz-adv-x="1232" unicode="π" d="M1044 746v-430q0 -104 6.5 -186.5t17.5 -129.5h-296q-10 14 -16.5 43t-10.5 68t-5.5 85t-1.5 94v456h-220q-1 -57 -5 -125t-11.5 -139t-17 -141.5t-21.5 -134t-25.5 -117t-29.5 -89.5h-298q23 71 43 167t35 198.5t22.5 192.5t7.5 157v31q-44 0 -92.5 -2.5t-89.5 -11.5 l-30 178q33 33 119 50.5t235 17.5h834l-28 -232h-122z"/>
<glyph glyph-name="endash" horiz-adv-x="1000" unicode="–" d="M60 600h880v-188h-880v188z"/>
<glyph glyph-name="emdash" horiz-adv-x="2000" unicode="—" d="M60 600h1880v-188h-1880v188z"/>
<glyph glyph-name="quoteleft" horiz-adv-x="536" unicode="‘" d="M300 1370l190 16q-96 -268 -140 -544l-292 -18q95 302 242 546z"/>
<glyph glyph-name="quotesinglbase" horiz-adv-x="536" unicode="‚" d="M226 -190l-190 -16q96 268 140 544l292 18q-95 -302 -242 -546z"/>
<glyph glyph-name="quotedblleft" horiz-adv-x="934" unicode="“" d="M298 1370l190 16q-96 -268 -140 -544l-292 -18q95 302 242 546zM698 1370l190 16q-96 -268 -140 -544l-292 -18q102 313 242 546z"/>
<glyph glyph-name="quotedblright" horiz-adv-x="934" unicode="”" d="M646 842l-190 -18q96 268 140 544l292 18q-98 -308 -242 -544zM246 842l-190 -18q96 268 140 544l292 18q-105 -319 -242 -544z"/>
<glyph glyph-name="dagger" horiz-adv-x="1070" unicode="†" d="M394 1348h282l-28 -404l352 24v-236l-352 26l28 -858h-282l28 858l-352 -26v236l352 -24z"/>
<glyph glyph-name="daggerdbl" horiz-adv-x="1070" unicode="‡" d="M396 1348h278l-22 -372l348 24v-236l-348 26v-316l348 26v-236l-348 24l22 -388h-276l20 388l-348 -24v236l348 -26v316l-348 -26v236l348 -24z"/>
<glyph glyph-name="ellipsis" horiz-adv-x="2000" unicode="…" d="M1848 164q0 -82 -51.5 -134t-132.5 -52q-80 0 -131 52.5t-51 133.5t51.5 133.5t132.5 52.5t131.5 -52t50.5 -134zM1182 164q0 -82 -51.5 -134t-132.5 -52q-80 0 -131 52.5t-51 133.5t52 133.5t132 52.5q81 0 131.5 -52t50.5 -134zM516 164q0 -82 -51.5 -134t-132.5 -52 q-80 0 -131 52.5t-51 133.5t52 133.5t132 52.5q81 0 131.5 -52t50.5 -134z"/>
<glyph glyph-name="perthousand" horiz-adv-x="2646" unicode="‰" d="M2356 382q0 110 -34.5 170t-99.5 60t-101.5 -62.5t-36.5 -169.5q0 -102 36 -166t102 -64q134 0 134 232zM1850 374q0 179 104 293.5t270 114.5t264 -106t98 -280q0 -194 -109 -305t-263 -111q-157 0 -260.5 108t-103.5 286zM1524 382q0 104 -33 167t-101 63 q-65 0 -101.5 -62.5t-36.5 -169.5q0 -105 37 -167.5t101 -62.5q134 0 134 232zM1018 374q0 179 104 293.5t270 114.5t264 -106t98 -280q0 -194 -109 -305t-263 -111q-157 0 -260.5 108t-103.5 286zM610 -22h-166l752 1342h166zM562 922q0 104 -33 167t-101 63 q-65 0 -101.5 -62.5t-36.5 -169.5q0 -102 36 -166t102 -64q134 0 134 232zM56 914q0 178 103.5 293t270.5 115q166 0 264 -106t98 -280q0 -188 -107 -302t-265 -114q-157 0 -260.5 108t-103.5 286z"/>
<glyph glyph-name="guilsinglleft" horiz-adv-x="552" unicode="‹" d="M504 888l-242 -382l242 -384h-214l-234 384l234 382h214z"/>
<glyph glyph-name="guilsinglright" horiz-adv-x="552" unicode="›" d="M290 506l-242 382h212l236 -382l-236 -384h-212z"/>
<glyph glyph-name="fraction" horiz-adv-x="874" unicode="⁄" d="M148 -22h-168l744 1344h168z"/>
<glyph glyph-name="Euro" d="M1080 58q-53 -32 -138.5 -56t-185.5 -24q-77 0 -150 15.5t-138 45.5t-120.5 74.5t-99.5 102.5q-39 50 -67 112t-43 136h-132v144h112v34q0 15 1 29.5t1 28.5h-114v144h138q39 163 142 272q88 98 207.5 152t264.5 54q95 0 176 -18t138 -44l-58 -230q-41 20 -102 36 t-130 16q-75 0 -141.5 -27.5t-114.5 -84.5q-23 -24 -38 -56t-26 -70h520v-144h-552q-3 -14 -3.5 -28.5t-0.5 -31.5v-32h556v-144h-526q11 -42 28 -75t40 -59q51 -54 120.5 -79t149.5 -25q36 0 71 5.5t66.5 13.5t57 17.5t41.5 17.5z" unicode="€"/>
<glyph glyph-name="trademark" horiz-adv-x="1784" unicode="™" d="M1688 552h-192q-20 376 -24 654h-4q-38 -158 -194 -640h-154q-112 394 -128 462l-42 178h-4q-4 -267 -26 -654h-180l54 796h272q105 -347 150 -534h4q56 213 67 245l95 289h258zM34 1348h658v-162h-232v-634h-198v634h-228v162z"/>
<glyph glyph-name="partialdiff" horiz-adv-x="1174" unicode="∂" d="M532 224q48 0 89 26t72.5 69t52.5 97.5t28 111.5q-7 25 -24.5 52t-43 49.5t-60 37.5t-76.5 15q-46 0 -85.5 -20t-68 -54.5t-44.5 -81.5t-16 -102q0 -47 13.5 -84.5t37 -63t55 -39t68.5 -13.5h2zM94 1346q22 14 59 34t88 38t116 31t143 13q130 0 241.5 -50.5t193.5 -144.5 t128.5 -227.5t46.5 -299.5q0 -187 -49 -329.5t-133 -238.5t-195 -145t-235 -49q-117 0 -202 42t-140.5 107.5t-82.5 145t-27 153.5q0 101 32 191t90.5 157.5t142.5 106.5t187 39q61 0 110.5 -15.5t87.5 -39.5t64.5 -51.5t41.5 -51.5h2q2 8 2 17v17q0 89 -24 165.5t-69 132 t-108.5 87t-142.5 31.5q-51 0 -94.5 -8t-78.5 -19.5t-61.5 -24t-43.5 -22.5z"/>
<glyph glyph-name="product" horiz-adv-x="1366" unicode="∏" d="M1148 1048v-1228h-288v1228h-358v-1228h-288v1228h-192v252h1318v-252h-192z"/>
<glyph glyph-name="summation" horiz-adv-x="1118" unicode="∑" d="M30 -180v174l448 558l-424 546v202h1000v-252h-604v-8l364 -476l-386 -482v-10h680v-252h-1078z"/>
<glyph glyph-name="minus" horiz-adv-x="1192" unicode="−" d="M80 628h1032v-188h-1032v188z"/>
<glyph glyph-name="radical" horiz-adv-x="1188" unicode="√" d="M778 -160h-206l-326 824l-156 -64l-52 138l356 148l220 -600q15 -41 27 -82t21 -76h4q6 32 15 75t21 91l334 1386h208z"/>
<glyph glyph-name="infinity" horiz-adv-x="1506" unicode="∞" d="M394 378q33 0 64 13.5t59.5 35t56 48t52.5 51.5q-22 23 -47.5 49.5t-54 49t-60 38t-66.5 15.5q-31 0 -57.5 -12t-46 -32.5t-31 -47.5t-11.5 -58q0 -33 10.5 -60.5t29.5 -47.5t44.5 -31t55.5 -11h2zM1108 378q30 0 56.5 12t46 32.5t30.5 47.5t11 58q0 33 -11 60.5 t-30 47.5t-44.5 31t-54.5 11q-34 0 -65.5 -13.5t-60.5 -35t-56.5 -47.5t-53.5 -52q23 -22 49 -49t54.5 -49.5t60 -38t66.5 -15.5h2zM1110 192q-55 0 -104 18.5t-94 48t-85 66t-77 71.5q-39 -36 -78 -72.5t-83 -65.5t-96 -47.5t-117 -18.5q-72 0 -131.5 26t-102.5 71 t-66.5 106.5t-23.5 132.5q0 67 24.5 127.5t69 107t107.5 74t139 27.5q56 0 105.5 -18.5t94.5 -48t85 -66t77 -71.5q38 36 77 72.5t83 65.5t96.5 47.5t117.5 18.5q72 0 131.5 -26t101.5 -71t65.5 -106.5t23.5 -132.5q0 -67 -24 -127.5t-68.5 -107t-106.5 -74t-139 -27.5h-2z "/>
<glyph glyph-name="approxequal" horiz-adv-x="1192" unicode="≈" d="M1156 336q-26 -45 -61.5 -83t-78 -65t-90.5 -42.5t-100 -15.5q-38 0 -71.5 7.5t-63.5 18t-56.5 23.5t-50.5 23q-22 10 -46 21.5t-51 22t-57.5 17.5t-67.5 7q-34 0 -65 -11.5t-59 -30t-51.5 -41t-42.5 -45.5l-104 128q26 39 61.5 73.5t77.5 60.5t89.5 41t97.5 15 q41 0 75.5 -7.5t64.5 -18t56 -23t50 -23.5q23 -10 46.5 -21.5t49.5 -22t55 -17.5t63 -7q38 0 71 11.5t60.5 30t49 41.5t37.5 45zM1152 756q-25 -43 -59.5 -79.5t-76 -63.5t-89 -42t-99.5 -15q-40 0 -74.5 7.5t-64.5 18t-56.5 23.5t-50.5 23q-22 10 -46 21.5t-50.5 22 t-56.5 17.5t-65 7q-37 0 -69 -11.5t-60 -30t-51 -41t-42 -45.5l-104 124q26 38 60 72.5t75.5 61t90 42.5t102.5 16q41 0 75 -7t63.5 -17.5t55 -23.5t50.5 -24q23 -9 46 -20.5t49 -22t55.5 -18t63.5 -7.5q38 0 70 13.5t59 33.5t48 42.5t35 40.5z"/>
<glyph glyph-name="notequal" horiz-adv-x="1192" unicode="≠" d="M1112 232h-600l-154 -276l-170 96l100 180h-208v188h318l136 244h-454v188h566l166 292l168 -96l-110 -196h242v-188h-354l-136 -244h490v-188z"/>
<glyph glyph-name="lessequal" horiz-adv-x="1192" unicode="≤" d="M114 0v188h974v-188h-974zM1088 1364v-192l-760 -328l760 -330v-190l-974 428v184z"/>
<glyph glyph-name="greaterequal" horiz-adv-x="1192" unicode="≥" d="M90 0v188h1014v-188h-1014zM90 1364l1014 -428v-184l-1014 -428v190l778 330l-778 328v192z"/>
<glyph glyph-name="lozenge" horiz-adv-x="942" unicode="◊" d="M216 740l256 -496l256 496l-256 484zM404 0l-390 740l390 724h136l390 -724l-390 -740h-136z"/>
<glyph glyph-name="four.superior" horiz-adv-x="748" unicode="" d="M412 864v150q0 14 8 150h-4q-57 -110 -72 -131l-118 -167l6 -2h180zM634 534h-222v180h-402v126l348 482h276v-458h108v-150h-108v-180z"/>
<glyph glyph-name="acute.cap" horiz-adv-x="600" unicode="" d="M224 1702h324l-248 -252h-248z"/>
<glyph glyph-name="dieresis.cap" horiz-adv-x="600" unicode="" d="M644 1592q0 -57 -38.5 -96.5t-95.5 -39.5q-60 0 -99 39.5t-39 96.5q0 59 39.5 98.5t98.5 39.5q57 0 95.5 -40t38.5 -98zM230 1592q0 -56 -38 -96t-94 -40q-60 0 -101 40t-41 96q0 58 41 98t101 40q55 0 93.5 -40t38.5 -98z"/>
<glyph glyph-name="circumflex.cap" horiz-adv-x="600" unicode="" d="M190 1702h220l210 -252h-214l-104 132l-106 -132h-216z"/>
<glyph glyph-name="tilde.cap" horiz-adv-x="600" unicode="" d="M156 1458h-142q0 254 156 254q56 0 132 -40q80 -40 90 -40q30 0 40.5 21.5t15.5 66.5h138q0 -151 -43.5 -199.5t-116.5 -48.5q-64 0 -132 38q-68 36 -90 36q-42 0 -48 -88z"/>
<glyph glyph-name="caron.cap" horiz-adv-x="600" unicode="" d="M414 1450h-226l-208 252h212l110 -132l104 132h214z"/>
<glyph glyph-name="grave.cap" horiz-adv-x="601" unicode="" d="M52 1704h322l176 -250h-248z"/>
</font>
</defs>
</svg>
